<mxfile host="Electron" modified="2023-08-21T17:06:37.516Z" agent="Mozilla/5.0 (Macintosh; Intel Mac OS X 10_15_7) AppleWebKit/537.36 (KHTML, like Gecko) draw.io/21.6.8 Chrome/114.0.5735.289 Electron/25.5.0 Safari/537.36" etag="kXRLpWoSrRrh6vUWisOX" version="21.6.8" type="device">
  <diagram id="qvVxqO24wr3iA68sFUF2" name="Page-1">
    <mxGraphModel dx="1548" dy="599" grid="1" gridSize="10" guides="1" tooltips="1" connect="1" arrows="1" fold="1" page="1" pageScale="1" pageWidth="850" pageHeight="1100" math="0" shadow="0">
      <root>
        <mxCell id="0" />
        <mxCell id="1" parent="0" />
        <mxCell id="AylmejhHFdg4Lcn9lDIL-1" value="IdentityVerificationUnavailable&amp;nbsp;" style="rounded=1;whiteSpace=wrap;html=1;fillColor=#f8cecc;strokeColor=#b85450;" parent="1" vertex="1">
          <mxGeometry x="-810" y="130" width="180" height="50" as="geometry" />
        </mxCell>
        <mxCell id="AylmejhHFdg4Lcn9lDIL-2" value="IdentityVerificationAvailable&amp;nbsp;" style="rounded=1;whiteSpace=wrap;html=1;fillColor=#B5F4D2;strokeColor=#82b366;" parent="1" vertex="1">
          <mxGeometry x="-810" y="30" width="180" height="50" as="geometry" />
        </mxCell>
        <mxCell id="AylmejhHFdg4Lcn9lDIL-3" value="InvalidUserId" style="rounded=1;whiteSpace=wrap;html=1;fillColor=#f8cecc;strokeColor=#b85450;" parent="1" vertex="1">
          <mxGeometry x="-810" y="240" width="180" height="50" as="geometry" />
        </mxCell>
        <mxCell id="GgOMKx5yuztOSWMcXEmZ-15" value="&lt;span style=&quot;&quot;&gt;if you send a request with your own id you will always get this response, regardless of what IdentifyUserRequest was sent.&lt;br&gt;Its purpose is to just check if the idv is available&lt;/span&gt;" style="text;whiteSpace=wrap;html=1;" parent="1" vertex="1">
          <mxGeometry x="-600" y="20" width="560" height="70" as="geometry" />
        </mxCell>
        <mxCell id="GgOMKx5yuztOSWMcXEmZ-16" value="&lt;meta charset=&quot;utf-8&quot;&gt;&lt;span data-metadata=&quot;&lt;!--(figmeta)eyJmaWxlS2V5Ijoid0dIeTZWem9zUndhVGhLVzloR2ZFdCIsInBhc3RlSUQiOjU5NDg5MTIyNCwiZGF0YVR5cGUiOiJzY2VuZSJ9Cg==(/figmeta)--&gt;&quot;&gt;&lt;/span&gt;&lt;span data-buffer=&quot;&lt;!--(figma)ZmlnLWtpd2kjAAAAvjwAALW9e5xkSVXgH3Ezsx5d/Zr3k6eIiojzYhgQkXzcqszufE3ezKrpUSfJqrzVlXRWZpk3q3qadV1EREREREREVHRZRHQRFRERERERWURExBeyqOiiP3/+/Lmu67quu98TEfeR1T3s/rN8mI4TJ06ciDhx4sSJE5G3Xuk1wigaXAy7Vw5Cpa4/16o1+0G32Okq/tdsVfx+uVpsbvgBWd0L/E4m7xlqv1kBzgW1jWaxDpQPuhfqPkDBAP3AF15LhtZw7gfna+1+x6+3ilJzudnq1tYv9INqq1ev9HvtjU6xIvVXHNivtJqSX43zHX+94wdVUCeCst/0+6Db1f6DPb9zAeRaFtnx23VBnqzU1tdJT5XrNb/Z7Zc6tF4uBtK305m+nWv1OozDl56dCbodv9iwJeTPurwd8XXFR0cRQngIWEkTurizgzBBQVXpt5qmYWUyW51aV8agm9Nh2N4bRCFkZYq6piWIGq1NA+qt0WQ4mlzsHI6FptlqPux3WhSoVsWUCwc7W0+i0AelKq1yr8GoAHW52NwsBkDeRqfVawPk1jvFhtDlS61W3S82+6223yl2a60myMKmX+62OkBLMk7S5XrNsF3x6/VaOxBwtQMR027m9UTH3+jVi51+u1W/sGGYrNFUs+JXEHdKd7LrPyRdOhXUa2VBnA4uNEot0ZEztSaNNQ0WqdbK50VU1wXVYtvvb9W61b6re3251WzC03TwhrLoY6neKp8nd+NWrbJhdOsmeDVkpDc3/EqtCHBLtbZRrfOfFN8awMAO9jYH9hF2p16URm/fKgbVWr9Ly+Tu2Cx2asWS6f+dXQc8zgD9MvIg9/iYxGn2Exie0dcnBnuDg3BrNN/rho/O7RQ9PniwV+z4lCpqO2lqOtloGSXyuvASeaH3ZHNJttLakg7nryXYQrvYKdbrLCB0vNHvuHEuLaLr/rpgl/3mRr9SZAhF0/iK5FkqPcmsSma9ZrieMHCrXvFF1mtdlo//cKsmvTzZ7vgVfx21qPTbnVbZD0TBTiE3vy7lp2MF7Ac118czCarRq3drbYM82yg2e8V6v9Zs96Rv11X9h4pWg64vV/3NjgFvaFPNoW9sMWwLyixLz25u13vS/C3FTqe1FQ/zVpuLZXFb0Gs06Ev/XK9pZhzc7UaJ7gjavl+u9ku9EnMI4s5as+vLmmedtzrFDcE9rjQOJ8MGK026UwyCfrfKTGyIzcEqdhrG0ulKsXPeF9aeG6QoVE6WD6ujhCEhmy+36q0kVzBKaeosBax/A5kFR41KC4Umv2KrxNnVVFlPBK31bt/wILdWLXYqSc5YOL/j21V1yn+ojJzsyE9XzWyfCYrdXrLwz5pWAK6r9xBVK6h1pYnr24PRxGnvStBCt0EqNKpSY1poTboKRicoSY08sDiAgkJTxUKAyyU4iJzS52sNK+YCVu9cDWBpkyUkRm65ts9mFOwMxqGVPrtJx++WjeDXazJOjb6a1rpWb3P+7m6443qcr2EuOuwlRRYQharSabXTrF5vYbyYyWYFO9KTDnqlYvn8Iion67dsbPRSC42qoRygVa+N3STV9daWAehC1/YhQCPq/XKxLZqZT3MsqE7Z2PWCMK2EO9PZYD6aTqgTW29aZn6RK7BmuLXzfqptXj0cyHbQnY32ycV14N2v+m7mdfNwfzuc9SajeQTfTlGGqtq1h/x6AKDpNTuiUHrl6SSaz9IZXmbmwSspN0PSjaJsaB79cGLPBWX2Q4D8OhwrfVuj4DKGeimYz6aXwuJ4dHFChYSZwswzsQC61es60LPE5cEBGhmPh+Ea1dCJvfTsgha5yCByNus/2KvV2TQxdCDzTqfEhNktu4D4UD4MaIJayu4Fy6m1799NfiWTv4f8aiZ/L/kTmfx95Ncy+WeSP5nJ30/+VLnWKWdbP21He246Esk08AI6YFXJ3/RlBDoeuFeaTsfhYNI6CGMFyfeadqUiRqrJ1gWsg14J22xg7yGzgI2+GuFXp7PRi6aT+WBMdWcZM3OLLhspeOd6bLrrNdPDtPZmOJuPWHqCa7UpylQttbrdVgPIa0wPo7B8OIumM+TDtlDE9lGgyp1WwEqrdYC1f8GXpYfqkfNwGU1T7SJDwRaWUXHyeSw9SYGkXKsDLTXEokqVZaYYbxNoJZk/k13dZLFPZ43RbCYdSFaRmXVSbQAsEJaRHa0rKuxVBtGetSdemV0YlEoVXBubY9dDvt3cAKXOtX1JdbApideuiO+Y8x89mM7mx9dQDh8Fk87m5xaKihF4KKZ9HSOSJevVB1emh/ON2WhomeTtsspIPO2gZ1dZLq3THszn4WxCEVS1tlkh2Ghjq7WZz8P5tBNGoxfBOhGR6Y6RTNIPnUCeVOvODic7Tv28Si0QN0d4KlxedlMAHcyvjMMgdGNn6jpBy9nHLs4xiS6jXVZX8NNxNZpl2VhyXb/RZoM1Pno+ZoMw52Eiyav2G0Ad7xYYjsHOJTuNyZiqGOiHka7pgWajxJk0sKU2ek1zV0nXitQroWRiYoBzpkJ5ekiHZq7e0mPVQ+xucnLFXld2rnyGVcGwOncYzUe7V8g+Jpd2sez3MQX2qJCz+ZLf3bKOAVKCT2Bn0RhckJwVgtrDfr/bwsoYAS0gUDomudZo43STkxJorDTa02gkk8t+Asp1XBVLiL1njyeGbGsmtpm9hmNLsQ1audQWZ0Xkpg/qmNvxMWhIJixZmrWTvBJPHabA+l1yzCSvex0zcSU2ZNJcud4yHmseP7sfO93kC702/qzfN85+v9NrdmvmeLPEKqvUxLsxCrBco2uzQablszj+LH/DXRXXab0vVdmayOtGi+MtrimwZ2FbkKNWVVww4LwtwJkQsoLNGc99CSq8ZOMYc6I1I1yp4E6SrlJ23r8QVztBdrNlj0RrwHYcVTOXJ5M8K478KdtErDinbZZD3KbUPtOdDSZ2Su0Ib2fD5ZjQ7bNDsPWKLCBTrGSm2FTR65ygST1zaumvd1rJSSGXQcU7RT6Ds3tCIYNJNoWldi+oWpxjtpxiYl4rKcqyWk0RCacTcg62OMdpLcXEnE6mKMsJMcWIhNNp21EmEaKY2ZkFZMzv7ALWsrxuAZdwvd605LCO6Q1ZXMzzxizSsrwpi0o43ox5q5X7UkbuFnxHwhDFJlbPLMlbOSa08CZTzG3+IGIF2xk/TeSi3CvVyhQoYR1nNC59JuuJabIeOTVkiSVFeaFbwBRs3QXckrXqSX45aHfslrCygXqy5SaIVUeaIE5YyCwQ1rJdHWuLyO6WmI+Tx5BVjkigTwU7s+l4XBnNrCWh026NfYENAAkbA23rYobmYg3CIUZsHlLuP9RmL7Q2tQwHcapMTm/02IW0FxHNoTHgZaXHUzwjA3rl6RjXQ+dnalXpi/zjbfNPbsA/eeudUPlRcvoK/3gdUFCniMv8k9vjn7zhFMynB1TYEVi9QOkDZ6Uh8BqD+Wz0qNJL+3fdRV7v33U3ibd/1z0kuf27BZnfv1uQhf27BbnUHsywyLXJMKSed/FwNFSPZJiuKc8eFyg8GowPQ+roQ3N0uFN560ipOdgPlc7tDvZH4yvQ60j2agAPJvNoZzY6mJPLCe3mYDYaUOVwP5yNdtZHFw9niJbd2R2RFWrHfAJoIgsmIAhsmlmsGhwMdlDqhbqEGnAYxIiZvCaG4U6V12CwLpMrA8xywJASPDAw/hTqbOY3W7s8OIhQ5rQK688cLzVJP854bZ+jnnQ9B6Kf5MRFJ4goYAEUg90AXMrwb8dyz3YLF55/8eTxngBMfwIjZCYnoaqh02apaQ4FxsCvh4O5EfCf6zYnQIpU+Z62IXG98MrtQPA56Q2p6SBpwQURlwjQiCu73OpUmqQrxfWOlK9WmsYYnWj2GtKlNRxuCaSdZL+UIZ2q2PS0eOKkZziwSnq2WDTO/3Vlm17P6UfSGwKbv7GzaeIeN8nCJL052DKB21vKwZaktzI5gr+tXDYRvNsD61XdUa2Z0Oydzn95XKvTlP49XoRC+gT2N5nKJ1a65oz7pPV6Ucbx5MZGR7b3LwrQNdKncJqQ9r94HeeX9KlVm35J1bb7pV2b/7IHbfq0tk2/XE5IpE+vr5ck/xWttkmf0ema9Cvbtv5d7fNNkdPddcwH6T2k0s97O9265O8jlfwzi6XOJun9xdKm5J9FKv1+YNPyefYmHSJ9Tqm+JfPzVaRC91xSofvq4vmqjON55XPm5Pc15XWzEJ5fbpt8sdzrCF2JrV7yZYybpJV1y98neCf9WSe9h3SD9F7SKs1KezVS4X+uasdDaxvSn3q1dU70Bg/W+CfNGo4Eaetc+1kPkLbPtR8QPg+eaz/7LtLOufZd95EG9XMNqdclWCv0PXY1mZdNcW5It0ilHw81zjcEf6FZN27Zw83e+S7p17IBSL++jjQg/fpNBE76SDvoCr5PKvgXdM53JD/otKuSbnd6JZn3nQAHmHTYtf0Iu01zNtllmmT+Lm4SCiPd27Tlo0077hdunjf6cmmz0+2QjknvId0PAiyvUhNSyU9J7yU9IL2P9BtIn0k6I72fNCJ9FumcVOR0SPps0qMgwGYrdZlU+D1KKvyukAq/F5EKv39FKvy+kVT4/WtS4fdNpMLv35AKvxfrILhHGH6zLm+aHr5EAGH5LQIIz5cKIEy/VQDh+jIBhO23CSB8Xy6AMP52AYTzKwBMV79DAOH8SgGE83cKIJxfJYBw/i4BhPOrBRDO3y2AcH6NAML5ewQQzq8FMH3+XgGE8+sEEM7fJ4Bwfr0Awvn7BRDObxBAOP+AAML5jQII5x8UQDj/EMC9wvmHBRDObxJAOP+IAML5RwUQzv9WAOH8ZgGE878TQDi/RQDh/GMCCOe3AtwnnH9cAOH8NgGE808IIJx/UgDh/O8FEM5vF0A4/5QAwvkdAgjnnxZAOP8MwDOF888KIJzfKYBw/jkBhPO7BBDOPy+AcH63AML5FwQQzu8RQDj/ogDC+b0A9wvnXxJAOL9PAOH8ywII5/cLIJx/RQDh/AEBhPOvCiCcPyiAcP41AYTzhwCeJZx/XQDh/GEBhPNvCCCcPyKAcP4PAgjnjwognH9TAOH8MQGE828JIJw/DvCAcP5tAYTzJwQQzr8jgHD+pADC+XcFEM6fEkA4/54Awvn3BRDOfyCAcP5DAGOi/kgA4fxpAYTzHwsgnD8jgHD+jwII588KIJz/RADh/KcCCOc/E0A4f04fjwvhWs3ZrtV9Ssculic+ZWNwcCBOjvZ2Z9N9ccvmU/71SuPpttJ6+8o8jFRO24CU8nLcE+5JfiIeGf7XcDAfGNplldscDcOp8ryYJrq3NxsL0fpozLm3LN5kcfhCYhBKr8ylU/h50d5gOL0cAXp7o4t7nOD38PvwJIfhfDAaA+VDxhKJk4FHecQJPyTSBLw0D/dNaNIWLR+Ntjl77gi8Ym4MbLPuNll5J/7vNrmDxzQbMLZVtbo9E54TWiZ3wnRGeTebCTir9I4IQr1AeVPxMOfigOeORtFoG29LqzyJu+g5rQoRnnikdvUSvCfR7nS2r/bU8sjMxku1WjFQdw/3eSJdB7U6mIDkUFGTIsGctRhcPjxSpm1ZXUc+e6dxvTphMXvTw/GwLP1rDCYg6M/NsymnEyrTzbVIqgCc3DWyNZRuSl+u1akDGem6KcJaq9Ph/vSFozIttAk2I+NlfebIKMnLtLqewPDF0YQTjLS8NRrOGZi6YQFbDUWOoG/ckZZwYNVf59RN4pw2mKsKyqe8wqXwipoovQu2PprElZhdwVRGF0N6l+P0QM66tC9SeclsWcICNwfkYD6y4/RyA+7Ru4OLNKwFbIrU0ON45Zj4tG38hp29gbj54SyCQic501CtIkP2IoFbR+GMMGnYHTC/6jWezo1N7NSE0raZdS53xvQ+YlvRhYvjKwd7EfuJXhomFzQRu4le3ubYd+kbDqeyMN+k9VnLZpMOQEKPV3YZTCKdV2m9ujsYj7eJkq1TEKmJPrGHIs5o7FJp+ihcXqf1Gjmgv/P0yXkScOVUOnOntoI65fDhMJHv6fH0ogTnDUl3Wo7H3trdjcI5lkWt6jP7ozgil9S7bp8c/G3rr9f6+iHHpaNwWDed+HtP31CxiFTOJ+0wnbT0grS8VFos4QVpsZgWpFXYpS9Z4SxdLYtlN1J4LEhgxeEzElj9P5DAieOjXRvawdVN/xntyWqmD8rLbxPNHEZqyCHY2k93Ys7txXQcCApE/hLGLIK0UpR2msgAtiSGc6NoczCGFUZm39Y9z9JZVoWSE6fyVrB79nSIlC+bRclCkrILADkBktHnJVeMdmBFbhkzOZ2F9czlIFZxdzSL5olcpC06lM0vbcjkKW95Z7q/P2AIJbubpOGBbWVXEINmDDKBRgto/2rmg+GRs8dLV9ue5UqiHOxSM2IgyEsjr5i57HpOWzACR+7uqYTVQWYG3RjMmCQn6Wy3bJDFaJXUlEwznF+eQu7Gg3D2kf6LiPbwTzKqq+2CbMvcpiATLRMfqUe0Dq7sb0/Hjn1kMrTLbm3hmEkkDDxCJ7JRBPQ9XEc0bDZMXcwWrTQ7vuehCXA4AIfDyTEfWW2EE9nekJBra5rlrA+jcJ053xCXgnFcmZgAicYNGO3utibjKx2kfjQYG+pcxep5bX//cC6jM7uP5est8iXjrJdXjFg5nXAXmksoJzY1LmQhBOxEtD49PKgh/nhd6EFc5+1aaJBq7bGLjcBqj1lutgE6i3j/NxRBOH9sogCtFAlJY+BCAmCopbe6OxqH5+24IlMIC9wtN8bqAM+JOJawbDMvbq4inH1MmfPFCuMRXsfsikxodxocbkv8axsyQagXY9NYSgfTCcvStrR8ONkdy/Wc3LJkWa6Mol5cFKLiatV2uxzXbwwiFpadstxOjLVc9cHh9ngU7cFMGpbudqfdcLBfT7snjXjHG8nVcEpllbYYtehAMJdhp7omrFq7wWV6ivY4YlFRPKeFLixq0bX5bt7zf8SZhT8YB5kZiatY1vZBB+bR+HA3Sk/wR4wPZ0w9yzk3w/AdisOXT525AknizC1FB7NwMIRiOdqbXkbWuKGlEAkOZe1BvtIVL8+YvdpkV3xp096m0sNDuyyp7LXxyKZSUAmPRjvxNXEcfZbwhLnK1mUCRiaE5hkcAWkJXJJnZUrFTuzYsfZd5XJ5q2+OJPpYI2xLkuGcheI6+8VoGHptyHyMdkcYYDSXWpbnh9lkWsiQfbvtLHlXGKiV5M5RcQcRX1hogZMST3LxtUWOqDnjiCnzLpsQFxwipufGvtkzoZll14ESzs9FrIZshegzJpHe0EoyarnW4w7AXsXJdYh7GKKvYmDHkNQk9FSr9ONnS1eTF1E0tifRMs/bTtCGy8cRZYoqxwrVHHDgMDI0VKrQLG4S+TTBXcWNjHt3pYMtE271JO0TSTYEOXc1Yy4+8z6nGDkEwpnpFNMDRfwKDgIVdDZM2JcQXRu2/fa9/c37QHi2ZsCxh+UdcXaKDnd3ifqz7EfimJuusbJ28LPmshvM1TepXHR0UWyFcZeZfrIcMEWz/5CVQK51OBeXQbw6yjFTzAZbs2wc5JehWJ/Odli38j4F23MpAr3CplPcjqbjw3notl4M1U52UJ/S6oTr8eaGa1J5tfV+0/fdbUqxvlW8EADounEk5ckC5ngu47gf242XrzzscLJyc5PD/YA1zzxECmfLrXPOg5HFBrIK8DMuHmLZZi6HF0O/mMaVAzF4s4l6QK1uYM2Zf3OqoBGdsIq3jlwbuwTBZSwB8jbvbFcUNmbBI7L+AtYJdyMQsCudl4sCq4vywIeEW4VO67xgPPdiNeevr9uXOnlisK2OQAX3NGMJK4TFN/wy+5Rty1rZeAN2m1O8tQkBc8QgZc7pfSQYVyViLuJlT96TabJF7u4Ls4eeIyoQRmVlbhjCQ36lv1X1WYrVWr3Sb633bTHXGFym2kfDjJBlesGVSEWvONtJeoH3ixCLk4tIkdM+9jeT9UZc/c86sanOWZNfx6em7uFsRA/1cBQdjAdXjBqviW9jskZr6X97fMgB1bV2YDJIkmr4PZwOqXDJDrRtyjrheMCxYc9WyB8YpK2wT3yAtQTIOjJTDYiTXgnHIacMlDDfOBzPR9J6OFsfhePhpp0KJmiHpYDsUQadvRTkJpABis/XGEjYIqMf7jmEWFoSz5nTnLWeQPnYgBYS07qUcPMnwwPxoxlz6EDZs2gTz+cgnult7gFts3/PCkoqA7Ckx22pRdcz5HbhUQ0SSytiDoCknMvGWqXCPS6X01g4o7jE/WOUfY8Qv+awVRsj2zmaiUAKl3/CzqZLLqFmzrE0qCzN+PVSa8saClZP0clBO0+mMT0K3XY8HQ/Pm9nFbUb11xO19jK01RFRm9mVGsEiqkTTQ2yaEdZQhGXz5WOeDLtsOJ5yvBN9YfLp3SXUZWKr0d5u2tSYMqecciC71DOnxPzWaHgxZNUxevTC48Bh6tKkPxxxIJQB5OcjtG4+2D+oRdMH7ic8D2sM7AxC4cyghDgcFiXqktvBX4kzeSlAyMbo5Cq+/LoCIamtKhePpVaxI+LT5omCWZLYhkuOuFhvV+UqQ14DsJJ9IG1e+Lr39l7AjDBVAb4Dy5I90KlsqYcRINULBHYoOjIZ9SpPmR8gcA6csJi8v4ytqjk92SjOMw/2BlGolpRnAIu8/wA7Fl9Lv1DlMllL8Ky5dP+EMp6PRT0wsXIvSGpRzx5FbesJy6GARft2jdeIS34gPYb2fd441Q3T9xd7/D+DdAqjXuLp73fW45etBWZ9Lau7HWjbC0dRMN2dOyMRSBGNvkMTpppOegdDJsx15KfBrY/G45jmB8nbvTXG/AhCBOoyPqLI3D+YbGWh+78c23/gn9CM8hrG/y80Vw2ZonQn+Zzm7uHYbvB+b/pC3NzgEHVnYmehMSXGvgmnP2DlHjWm08l4RDxvfCVu4dPY7j2OlBJgtGNCOo8Q5XHozNBMwY/GBWIXUvSPxWjnMSQFb00KjLOfFvx4XCBOQ4p+W4zO9Af/xXaD8l/QkUEOQQoJ9yrqo25aBWcJ45LfzJRIhwX3sQzOdkqwv5XBSo8E9/GMc9keYAEi7sb0r+hr9rCUkNLLDxilQGk2wBygE39Ct+MsDhZzNL+yKVtbazZEEdRfe/pv4rk2m2c62e/R6kVwM9jFNfGvgJIK2SPoN2YLNuFvVeSbLDqxkhlde68miBYZ+kVFfbU+jM+ZcM828mZiw9jc3mMUfy4+yiImWdyfivNmmn9P/DDbi/Nmaf4+Eivfw6D+IKYLk315DVfXRrDLi5X+OeUiQq2EuxHTq1/BPp5BI8pIfdjT3+G5AcqA36LVN6RZawRkKiS2EiR4Oab+a2yJHFo5kdkCM4DvWmy6iLNwcSLxvwh11K/kGMcVQ3EWlg63mSxxO346Of0GcoTmkk7/o15Acap+v9b/ZEyscV7frNU0ztguHsQV6rK1qYL6FROPd47yTTFsiWsY38HF2eBgT+wv2/equvkYyhKeS7Dx85xVdctxnCU9P2cZFbndyb5B/1L1xGugbYVuUrKJ0kvoTz1NPekqpCXuCb7MZqJuVk+OYVu0KdlMrPFW9UWLGEu2xd4dB1PpWJqzxV8nEmqyzXC38WUxbIu+3rAzk67V0+KMLXvEaUbXYbnbVv/JSN7ErSYcB/f3p5O6nDEPOcAz3f9moRTv4dH54QCfOKV4MQsoIamMWHWhjIPtK0v1zVkqu6eJvLIkL8mSYFDkpgf0t2TRAV4IS+rhcDal6KXZouahfVhlH3UdqG+9RqHTATXjkunqUmKQxpNQc/Vt2eKyPLo64hIrg0u2rEfVt2t2WyxQzHzMzbyhTNb9R6AYMB4b+b5dfYBr0Al24GIb7x95GkZa/XaMriMf8r+Dw/xonamXQ+Z/ZOczvWONOdfms4so4z682lN/5sks9XDc6uY4G/djmbvt+fQiZ51ha9LqruO+IalIfaP+zQRPpDZb8DGdXCuoV+W4ZxbTILxek1OfTBVHUBE2Vr/UNF0aDUdpo99ncF17PyKo56rXM9CoOhh2uvUuZQz1zZnT9ZIDrc4+h+jbJWN5li1k0V+V3o+uONAWPJeaSVRtNcnYwq+OsCocKdYktaivIUSRXJ5yweUytvD5Q9QNs8XsTriuOZXJWoLiPp4sfTsrqUVVBKxFLRvPoOz6BYQlWhecca1e6alfymzQLTsWhnXDVUhbdQNLkT2mcv2Z5i1JNTLug7vDXFW3Z/OWpGlRxnipJ6rHZbKW4EGLQffVk9Xjk4wt7Ni8+ZnQU9QT0pwtDnbxKVJX46lp1pY/bCtYlFB8SRZhab42NE5NhBOiv9zBtqSfCqbsIir3HENZwl1pdyOc7odzHOjPan1vFmFpLtqWY6RQ3beIsnR7ciXE6kQtpwf1cBdjmEodEX+3zhJ0RNDHKF6TUpSm8/l0/xpcvuc4zbUYvTYlSktGshEeoOwsUHTue4/TdKfs+JSmJK/Tsrnj5bImI0w7o0b8ZqV9nxz7itvH4mov8ban4lswvqrxI8D9sMPZ3iboNzm0DDFB/ohDmjEl2B91WCYXBx1FlyXzFoekKau0DPvHHM42laDf6tDSVIL8cYc0TSXYtzlsYObXorGaWaH8hLfHxmQ3/kQmc/V4dee18FY12pH8zESMjCopLLfL2MIXmryMC7tOHy5l85ZkbFDtwVB2CEj2s3lLQoOgyswEpscsUrWuHjXIc4f2ZztVdcXkbWmFCLLJVpNuO4Y08Nu2CBNtfJa04BO2gGABXts59Ts2ax0P8p+0+TabGLt7MHqR1Dqn/nwBbdqvEd6I6NJf2KJsx21RRf0nV7Q3Gg9d1Y3ZVN6af96WuG6ZKQT7lwtYqwSg/8qiDRvDPwjHuwjnry0+3qapourqOzkdgezgdM6i8GGZ+keZ9O+yaPM7oqb6VZtzfXYzRUsf9PZHEwYdqn/MqV+TrTnOfGihhukFOsJZYq7a6ve44wom6PbGYJ+1NJjJAvt9DwVylzlyvjW++HfIgrT3KoEEKpOCV6YFJdq5mNo5TN936pSV8QA+qNX3Z3BdanFJ9IYMqpLeF/2ADgfJrzMeUm/MULVxAcLZURiYmCyd/jnOCiY+RqGh76h3ZVDyc6g19fNpXwlbyeXQR7R6t2axxHcrXYpUV/1ipqkugafpoczye7OUjQEZ/jM26Zc0mbgkM4L3SUSFoK7Js8syteOBXBm8P9NAYN4uBSjZvGjeO4mR+a20q7WUdaT+xdN/mhaZqUBCJnamXp5T/03bOK1xoP9G64+6vATn8HFsMPdvtf6jWDZymoeH+get/i7F+ZywwfznFFNnpOYgrv5FEyNN8KY2Wy/78H9JsdS3uH9IcWW0jskyXY3UP2r9P9IycbSSAOg/a/U/NcfoY99/OKn+f4vtMfNu2a+q/4qEzbHhGpf1P6np7GMWb7LMECnDVp/wJqjzsScEb9MIagc8txg7l+psV4cS8/4LT32LN8bnRAWPRuFlQ/v6nHqdZzrnXEkcVK3eELvAZYbOgouSfeUH8CiH4bSNMmyzaNRrPfWTsk73Dwy71+XUv/cum6ioPFXgtIwPHao3euq7M+iy/d3wMgdoi6zYoXKxPp+F8c+K3+Cp73Hl5cEOx5MiDCNkrl7m0a4tqU0ODufJzcanPfWDrkB2ZuL4rJ0fcpjq9AjDYzTh9Z76txiQLYMPMNeXRMAM798hC9Fpxuu6wVWZJTPVIfm8Y9cI54OhjPkzHh2yOP9IhKX+0NPf5jBtnAE2hCuNcHJobfTnPP3tnpnQzvRybEgj9XZPvdOiMUGH+5OFkp+zJVSw6hOpn/HUuyzSkm/J5mLQP0/MjmXHKc+fHO6vi4py7Pm8p/67XeoUVOh2XPBXnvpmIiLYWObjhAHs5vi8gfn18ASlY9Sn05wtLsn0W5vpT6QfYk3OXIW0xOXQBP5ibWrZ28frrsZacj9ibdZYYTPzoIbFcusixpLV90eMpz4igeQ2EpezxY25LEDszyXsDAR3ZPOWpLWNliz83v6p6inHcZb0IWYfRcn6KfgvX3w11pJf4Mw5JGBrfqBOe+oZ6unHUJbwBVYIAWddcBGhLv0ViyhLxzIiKGImIZIN8jnqGYsYS7bNwsTmS5AyUp/W+iszeUuxY59KiQ4Qr1V3pVlbPtwVO9PgIEXUwcwhUxVdhbTELFfT9nSdOdBKzrdx1hIc2bGUkLrVi7g+1JcleoW9+YzWr9BIzuimaAFlr9KR2SDTH/s9rH4YoyZOd7A/nc73EA2T+iZHxxE74rZpW71F2xa7IpyIy2kBYPhTjpCJYp52TBwfmaqvI5a7k+LoPUx+lrufR4mFivszCyeVkRg9eWzxTsclsTif14RgB+4q9K+0+tXYbNtooKDrZgY2ndEu4ElMqEuAhqzZHz6p1a+ZWN/42MONj2r1obhA9sE5jGMCevnrcVkq3ZpIkZEIwce0+vDVFMX0ecQntPoNQ4BymIuuR9TvGlkM2DJn3BWIHN11hrj2RfZGMwGyRXzaeoJleNIkcpP5OKf+OGUgtw3C4TEYfEZfCq8Qubl4Ecm+MscR8WiKY+OLCW3vzQjtIe8/09JTMfrEB/ZK4e50hgNEYEgG+Ij+f1xUus6uRphc6/9Xz5luCfSI5NXfeOr/Y0Lo6F6LmDXrlI6ykU6xi0S9gOnIt7IpRvPUI325F+5vh0PD4LU5IkLEsPYa4XBkX7B+Okc0CKVgnmWW6Z7TpDd66nu9aLR/MObgEL90ag8m4ViG+0ZvsMNITAim2m3UZXn8Uw7jLpGeDhZH/XNO/VSGqD7YJoa7pt7hHQkJGNP8X+cw8jGmjNU53Gdk4tUdcD5UP5uUyWGpdCVgo6LkLZ56b1IiOAoj9Tc5/e4sFrf43Vr9QoLqhJxV0WWjjJ/NqfckJdIVc0MRqb/NqV9M8F1medLEVNDxzyTYYGd6AOXf5/SfsNUQz76CijzKwRGfRIzidHc3QISHkXT1dXn1lx7+ymQ4iHVd0O/y1K87dLzzCvq9HsH7/RGhaCG0XNS/5NRvsL1n7uyYgI94TCH+Ar78yz31H+gInj7b867cQLw0r37Xs4rCdBqdqg1Z7epT3o4YgY4NNKbW6OV5dvmZxdoDz5r6I2843SHmSWgzy/tlefXH8CYijxSyl82Reik+sReNWX5F2B6F3b1wP6yPts+zGNfwFER+xfl8NtomYkAoMK/+3NuEOvW/vNyAHeCALEPU+wxxUJ/KL4mVh9toBp5rCFYaoN9qVV4dcb+r2sVeIDe+utvakG+lCL4fI72G/RRErtd0UN6RSbafYAvmK37rrc6WvYxeMvlSsXzeIZYNwryCWMFHwSMyfpR1w7wlBMRBecTuz3FMY1LETKSI7M81BjNzcWcLUVZGlgcXZKpYbGEUtWw1m1+y7VacXV7wMT0cXZYbRxy59cV2GWsG6GWegYieeZppnY2YhB/ytF4s9Cm5AqtLZtbSRymbMn2of8XpasrjR+FxrNSnCCY58eftvSz9OcrQyMpPVpSleLOncpsLGHVnoxYENfMDZFVudeQzWJ1ipdYLyGv5NNxGRz6IKN/nsFReiqw1K755pJYLzHum/lb8WZh80GVKM7UKFtEuVuSLMPE7Qfl2YAZrX70sLyLjFy8ri+jkSczqZi2oleqiXCfkMZX5ah2ZtS1u4+VHwSeTj9WcSj6HJ02ZTvSPj/n0Io1p/SqiMymR7ce1eZ29iuza7K4rtToVENJgIsLrHdLVTPA3OLxpMcHe6LC2gQR9k/kASrPblx/F+51uzbz7uNmKstzqyRuizCzd0qg1+7Hcbm0UH0oyt0lJIsjbpSjJ3RGrlGwSyQ6SKu9bM8qbJfEpR4MTHQXLqmJDSdRYqEE9orwykN0FqJjh/ZPwXijzKRCmLLY5m/+++oec8HMrrCtcORVhbzkDZbeLlOU7YPmYdD5Ewn40pFfpo6qrWIurAHmG7TuvYutofAhSlhFIrJdXNDtX2zUAWYbVu2F1VblPYcrmwBVIzyxpjcOk2Zfl6Y55Oavib2I6ZtltMm3sfUljmXKfwrQxQar3e3FLMR3mejIwO7ueS8PvgYJTGaa1yYyZec3NCTlxTmOP/YCn8kfTOTEgMh/0VGH/MBrtmNyHPLVkWXcTck/PBa6Hk4sESTF9lmAz5uDhHc7xd7DPaWkjYYkdn7IRV6RzEZ2ad+HWiCBF1TI38dz2K68wob/WXsJqGO5SD5180XR/exSuu19uNe1QczvZ6s2k4kcYXvbZYKF8bTqVT+2ZytozLe+KO7UKJrcfmC+i9ukGs1lrVv1OrduXt6X9QL6VYQtyCy2kTwoYezwEtzA+zsQsEFdk1Ct2cid2XAQJUKjBeDOukWM7TK9f11SeG/60ek3qFsy0f4LZy458+WAmr1Fwhg2viBtMtbLQvMGztcnB2sLYBPHTbeY12r7KtTmUaKFyV9qUF+jmiwNGhCQ6fv+NuLB+zbLfl0fZIBZrt4/1DT1hGUwuuuya1iPnqMsvFBz2U572ahn0IhN4zKVPv+8pOcEgqi9A3BVKZqPVaLeadnNV9BcXSj42Kf3V1jvx5djDvmo/7eS+EaXM43hSLcPu+xXUwr7A9IpdbH7Vr6AhkMg3sYK+/SazFLOB99gRpKVeFu8eLC4GzVTOfdhLdTu9ZrnY9QG1+Zapezno2WqpIVh4hGvhTU51aI5BudhX06pabsvkZDoIliSRMCua5WK5a38hoQJfXJGumdZ0fivsdE4cOYPsB36dfdiUOqcUqEBXRVLO2cs2xtUFTvt0JidAVNvDqTQAXZ+jkThygG6I2XrSSeWtHjiUG022zggKM4zPsn5GO4Zn3nKP1J96uhCZpkNumgVHKSuna98EsAaWuf3cBbmCyWET4cZpus9WwpRotSq74GL8Vp3tXmj7QblTMx/1UOW2TJp237rwyoH4Arlzxc1iQpOXkyZp4VxgZLxkHL0HBbXcvtCtGuTKhnjnq4FBnwi2asaXWzvfkoejQCc7vUAwp0pF89WW05wU5KttZiGeqYnDTNzGzwQbMW72DWlcWEFr4kIsPYmxjkWiIfI1ucd8+sZkHTgkcrLmTVat18V61Dm1C2Pl5ceAaB7ctg/HGCYzKX+LGRxxNMOTEOnHb6Lk/W7YPOSIPyOXL6UVVN44XWalqF4zzejEM2av7dftx1Vytg8T65x7q2NAw+YfMAzXaJcdSl4hJ0fIwZgTivpHT60OF1H/hDItokSMWId/Zs8ZTi9POOziIckJCrNcUAUUL0IA4WTnSopdEpkg29m8ZUNjBbUsb1Nnkel0a7dOOYq2UrHnosXR6MUOSJ+0lJoBqoLRAGSgnIximehEajHGM07Jg72WsSq5ql+kGCgfXEsaKv6OoqqbD6/ojvl+kXeczLPFyhbrxWInLcxyw37+EBLlP5TA6e+shDKOlnmFkexxmtmi8os5a9mCSL0spxd/IRAxsXh68mP9fYid5UPAhYSzb7h4y6O0hS5oLuhQjQS1cBOHriYFmYu4HHtMN42S4VNdFSQrELxEA6SCuD0EG6m3tC+n/ipxWFDkl5O+bTpvvGt8N+aagb+LHbk8nRAggclgXDS9kO1y4CCEwOnYEZijaMKvaEiUd3vaDfF/WI+IM8V1IeXG1Esx2VEu3JfmUxrpvR1QZpSBuaM5du8ov22SOznKDZuO/DIoxthb1BUJPXBqNzEYlD5xd7bV6tUx2RNpg2zqXN1lLm3XbH/XuTKTcrWqT7J+ZgNL4Fbctjo1NzKOJW5EcnoRtyk2Tf1pTp0xE+aE+TpPnYWda75D63Mb94l7zO0JdnHSm41rk2Z4mZMIqOsXWauX5NQNiyizupm9G01jwaXRQXcqIka+NyWo0pXivnG0V9XNiNDOOeHVnL4lyaY68tKcvvVYV60UMn297RhBLVb1ozBx1yRIenuiVAH9ltuPtrlYJSzidl/Clpn3x+nvWnAz3CqpcLm5E2KkzvsX4t9IYM3PN3EiOCM3CW3U68YG6YdKrYf6+GXAXju4jyTH9tctV+V8TS5/Pl17Jrwjm3KkChq1NljX1itYDlU6bV/0ed6h+XWIeanLhHsNRkcfrcWjqezXklvtC/1KT2xT7HdZYrEdUlnv23w4lMvj2hC+XoIqXUmQuV1CjeeNO5qPbEOvznHoikktYQ1ZnhHT4LAxA4tf9tkUbdzbO+XGEM12egby5qM5KkVL8/jTJ7Ygf1muHtGVwp65mwRaCoVRF4lQvpzQ1/axmNVBJD9pW9llvaFNWZy4WkdouVy0nOCK7OIINZN9ifwags9M/EnTwqa1vEYAp9AYdwnt5Q7NqMDKqREtClyQT1CcACBMxw4qV2feWOPJrbi3cmjGpuNBixsSdy232JX8NcdXuMb4lhYpt5zcjgsoluLKJt2RCxQcnJ3B5GgQyR1F6B6OsWUccEc1dt1m8XgmXwlloZmIqa20YbUw35AvdrPN7djI59OVtuWGaX26MzDj2VZeBh2w6bFK7Qcvhsc5Wk5V8zSgg0Gk+jIH4THX6UpLLIHT9YFZv3ANjtkE83ABLu5CLTGZXpeJZ2nhNB+xoCSubX5LDuTa1XvTeXQwnbusF3HqcnBsA5LKdjYLU5tzVF+IAfNsDVAtNlHTiSvLu2olDPYBh8h5jQislk0fkwb1MBC/gOW/zbYc7BBkltMQzbnWI/XmHJ5rYgkTrwWTkEbQVccnMGCC8LorbyLxHtvU3iYmUeayhIOAtzxl9zONvYVo2CS8nGS8q/pYkT7mgOLRgGEso6hqKWuTZnj52BAY1DDp3FtznFriA+5cNhG5ihOuy7UUTWzGda4QSc60oo83G3cvWOBD76KYTwadNz8cUz+DGRMjUDbaxuKOFpXSqbGbJPMquolqubzx0oO4BqKLYpja2PIhbs0XrC/5IK7TMUPcZs2DFaqWeRw0IJhC9GnX1SmYYZTD8ZjYYE0wSwmG853BLC/OadsMVeXkA4s1dgKjCUWCwBbkONxo1Lo24y1Wxeiby3kkc2C4IDB5Z3WROZV3rRhu9/tDMrlAJoeIn/wSB7sSmY7FEtfjQTSPlc5yV29Dqa5GB7Dhou2dOQSUYZ9H7VnMCf/c9qIexkuhxvFIPo/jRYY+Wfy5eGj2R3VM19VNS4+u0dEg6ZFj6jpBeBX/faGTxiYRa0xtHldGMbd1kaVlyTpYolIir0i9K6eXKSMSYn9GTCgIRcC0I3DMMBa2a/PeprjpacBEfGdxRcNhmcM+GkCVKvfw8+1wMGdKWf++RIRMcEeVCOcnOd1jm6JR6ZB3Z0TL9BlxYlwTpvTUcx4SAUuJILyAJS67iXV8C7JFmK3kDazmffrJdXVOpYuBu/SV6TYNHTFOtaxXhyHbV9i0PE9gCzAPxrJzAZbTa1bEsTWP1Jty8hWrRdvLNVdOn6KpGb1dU6fNnMU0VWsIWAlnFvDta9hfqj8i7rAjidlXRLKY1OsOyKVKE6n35PT1O5lZei9u8NHCfLwPD5hlvzUjgoPsbpJv0q3jjAbMNkqk1c0ZkxSbNm4n8IDnTLAzRW/PqVslGyRSfEdO3ZZMStEcvQIm6vZd7oWj1qQLsaur1R17yfy/P6fuDJAwYZDBwd6Dh6EJxkfOBRY7gwBwfQ9YpiwaQbguJSPy9PaYCTRhFbecUBDbGHuz7R5HPaMT1reR3rng+8ooag+YKVEkPQffCfetUbMxdKYETwy8yebmQDKpyypPQyVxOgvs/hJ/XybwwHx2UBjkOQzAdqFmLPsHpvJyBKonH6rBCWykAXyWYNoFKsjMQUTjUgEI1f7CnNnTgvn0ANcOFsmuPGtO9/Ej7fi9heUzisoyxcR/pAYHWlfDdmiRdpJy+RgmhqUAaWk2HQx36BRXIwvUO4ty/zA15vR1pj6CwTyI21Ef5zx/ECt8O4u2tyXqo6zWBoyRhfKeIFRiELJNeei9AczFsdMK9RpP55GlMxuR+kBOF4x+qJdovSRQaRCxxKwVfrxcJQzGbrEvD3Z2aEDl1Uok0aQgCeSuxvmudOR56kScL7MH0nWDfr5aM7/Tp1MFddKATh85DpvsenJSOW0bbg+ujBEkiDPRwiqQ+6oP5vTZzNAShf9QTl23C6dNewZgGNcb7jXUiGWDlb3SOpxHo2HoT3bGGCpO62LamekbDGEboWKIH1E3ogdEGDADY3aEcW8ynAZzxKo+mdM3G1QnzKBu2Y5nPVKf4Ow7C3fsig/CbzgM0ScXW1xWt5l2SjOUbC8wZ7J1OmyHfrsp8zlMExYVub3CU3ccTAnZXZnsFI3aEOhUdyY/d+XCJzQeq3yc7HG4Z/Mr8o6pZq9x6nSJETyhMtrdLe8dyil0LSM1LLq2zsFS8nGNJsUoChuG8X+MKPIWdvNdsLlaZGwxE0ULSzvCPSqaXw4h0+4e0hMUTSxvExQR8aML1RHWe7azd4Um9MrB1bjVaxHH4ztxcG38mowvVheuIxlCPEJYWhMoKs4YnRy4zWH7l2xJ2hOy/LZAbdNCc5FD4eBa2KVO/ADMzJTy3F9hqPRJzB+lUfFfLtMJaUWU1OOsDly15z89iwsNnz/EKmTjMgapVuSmyy82YabW661il1QHXfl7CEBesV4zf9fR3oUAyPdlOn7g/sZboWFucpayN4rLcSOd0D7nShtb+sKNJW1YroUs16WYa3FiA/bsIo9xwbemvF1mzOVwQgnTDnCmcPGNs2LxL1CF8NGDGaYH3beov8D87btrOfVX4q+4l1kW806i135SJYnFqevkTUlyq+T+UJbNyl/Jkb+BYv+SjA3pm5su91f7KjWZSaC8/2CvWBdJF5otbt0kR2aJezb5M4BGZMtJps+1VEyystGRP+jZMQXkV7P5LOEJ+/H6NSPik7RCcsoKv7YuvTlNrab9S0ln6G+/wT1/v95qnTcXh2fToaNnYZJJ5PA5/OQUXZxdPJS4j4njJXrXiKVrwlvMlL1jgSbVTWjwHAw+Up8nDhwXiB7h45sSiWDqIQijWJ+hOu0uattn2fviqgG3iSwyao/E7uiJtTjs9QuX0Am9MNmUdohJJ08Z/u5YXyyBT6m4T/vwR1NhfpShWRiZeZcoEyE37YTifJlvc8VsAoX2yoez1+LzHs88oknfy+Q2zOrICxe5tBeagvlwksmSWwrMnzR1uWXTgMusMOEt8+koc+OH9Z8PHm0Tnt6Vxy7cnfrytTCFqnTsX+HUo5Y04NkrRS7wscP4k26C2GS13PnJ61JVjy9Tih0uievSiJa/H2eXgtcsbpLkiu7Da/mqfA67UL2Hf5eq9/LvcvU+/l2pyiewV6v38++JqhxLZLRryU3OyfUWlzsCnWLdsb4CwNNCc6Yq2LOYJ5LrFi6Crje3+Tf05N8bG36zR3pTXf4mwM0Vwd1S6fLvrRUZ8W3rtY2e4XE7ULnYdgO4o2Evoe5k0ZI8Tl5VPN5v8O8TRKjGhD0xaDAtAE+SXj2ZCyDh80UP8s9TKutS+4uLpZJ086nuHvVLOtLyl3ZkAF/m3mo8Tf5AFOmXy5+eJX06q5HkKwL7B2efcd7+NQhMDcldgRHQ3TKYewRxrwzuPvenD55ZMn/54P5SRWbmWUHb2IgHTBeevWWS57Rr5a4d8FcFrV7HfK/nubWGjOerOSjKCJ9XL5bMnw78mvivqD6/1Ot2jVyK9oIcqCT9dxdxqHc3nrwKsJWhL7pYxEABr7d6Xctrg/A3VsvMZLUBjXRL/lJgvWK/c3iu7m/YhwjnxY525PmyekGsbk0bUr+v2LZxbdvU40tF+aucQGWiGe26z7TTtMi84lZbrbkuDHw3yHU3wRtoqnyOz/KpclK2UC3wix3zh0LOZd8OnErV/QnsYL1GM9HVLyL0bkIspv5TKjV50dcyfXhqJf1I35fEgnq61MQeA36FnYBnOHHeJSnaJP28G2dAenEPNlxafSYan/3247M65s+OPkASM342sPA2vXpOV95vADyvy3ZcMrpVTKZTl6t++Tw3FcCefEKu7BuNznE7LxqVp9M915NCDGfqLMU4MWAi3uVk9lfiebZtrsYUJ4Jyh0sSi10z35cS6HTQrjWTfp2h1yTXkaDERhmvF22yrd7Q7fi+tAp8I/Ndaln8TTIC0ptFfhZ1i3SQ9FZJbZu3mZ7EwrqdJoQc8A5hS3qnpI7V40Rq7OCApSI3O0J3vt6S2ao3ip0He6ZGwz6GAULPGmY8LUNdqRUtcTuBHrSKZbt30l4JAZ1dMGFPTC3Rk9yUPLnCynO4L/Yb7Sq2VVr80nXfRO6+DPtlF/bTWD5+x/xRni+vNQO6YWt9Zbza7hV9Nq81yNwfxPbsq7AxTI593fFcLA2h4jj71dQUcX+NjI/0+bF32hFNQ4vN3zoN4sw9ZLpx5l4yvThzH5nNOPNMMkZVJXM/mYckY/p4IbH8D8seYqfua9Md5utk/bqlTfbrZRqTP6D9CLuo/cPd/cax5/ueHkbDsvwGy3wdyXxqzAQ2rCcSssHL9v+SvF4o8sGz8Zsv+cq2vyt4jmEmfNmYcgYYETY4fkjLlcUFbbu3+txT2O9zqvT7nGR0hQCOeE+LxDnMYNH8WctrfNaTnFe+5m8HVM5ZSGUe/XbTPxenDSAYKQHhFTGvyS8AUle7sOBqZ9604TQdc7ZHEwcXiNYYwuJsNnCM1nRhoQVxkYyzJp94TY4GqB+zD6DjQ4JXM1OasyXxY4/8Vbzww+bC7pV5ccOkxVfkjw3K/OgjndXXMKtXlfsUMrXeIEYyTMfvVfCrHvsNSUwea8Jetly92ru6RqYDr6UD/wtsSQAA7Zx7XFVV1+/XXiAq3g0DTRHLlEzBjMoUNmpB2FUty3rExIS0THl0o2VmprD3WkJlZuU9A7xmZOUFuVVmZkolqEVeyigN1G6mZFZ2vmOuvW36nue85/2cv4+fz26OPX9zjtscc8zbJpfLNIKM5hs+WrcluOW0W1KeuP7e6ZOmDJuWds+42+67cdwtGUke4xIjzHC1My5zdTKCg12GYRrBrkY3T3oo67H0iR4jxNXkacMwmhrNpeCfKlob5aZhuAzF3uhiBJuNhqQ9nB51zX/X/hIhW7mmSUdTdbxcOg6e6EmfPDFtQtRdEyc8EXVT2sSpaVOMEOP/zuY5Fwo8+VmQsHKhQ4tG96Q/7jHaZRvGgChXF1c0DWcZVyn+xh3pY8dnPWaoL738X3q4BmdEecalR2VNSZ8c9VDaxImTPFFpDz2UPmVKlKofP3Yq5fgpUdPGT5gQNSadL+lRd915+/1Rg8finPGeJ+5Nnzw+Y/xDaZ7xkyZOHpY+JXPSxCnpodLuCadT+lRYP5zu6Rk1Of3htMljJwjzSY5Yh0nGE8MRPyz931npUzxRkyYraPzYHlFTQGOiQnvwfTI1U6LS0HFqOiqOmZTliZo2Ls1Du6gnJmVJ07E9o6LSpkRlTp40dfzY8RMfpvXESROj0h8fP8UjX2mpFHos7VHHDoSKbp5xkydNo3Fc77iocR5PZlT65MkoMX7iFE962lhRdXK6J2vyROGRNhE2U6lw7IxCgbQJE2KiBk7wjJuU9fA4mKHm2EnpUybWzlrkiXpo0kTP5LSx4x/ya5s5OX3q+ElZUxjnKZ40Tzo6ozJcdcFT0Bu+E/3uudjHwwKiRb+0iQ+l90ScI2xyOmwnTQwV29Iyx6PZtLQnplAd0P4/8Rs+MW1q2vgJaWMmwNIZlSwcg6P1YJBqDI8xzC1BBN//2z/zv/1Hg//JP1r+13/U/v9/6h/O+D/+C3JdY16UCqIGe9ImjH/o4oywy3WNYQTbRt+5PsM40qiJa86sbs2yI1LHmnblV88EPRqR6gkmvRxpzH96NzJC7jNcOYZ1JicvJt+0Dd9tQdQf0VrcF1JIjpptNDzvTQ4fbNrRZ+cE5YBqTQpdIX/S5hkjrDlt3jftms5WkNcwxmlt/nSF7DcNl3dIy/t9hbkdTXvC6WuDvOZFfPabIUuCDJev8IpE2owwrZG37w/ymUZPrc2SoJA9tJk9a+A02iww7XMPZEsbXdaeoJDVwYbLmvr7E7TZY+YU1gVJm0KtzergkNeDjZA1wSTygIeCDGkwAKc8ZciK4jLnBM9fqyOukKemVj3BmmFmb//qJh0xQ56qTmpluILMbCv7BR0JCnmqd8kMwxVs5nRdaepIcMjMvJg4w9XIzAkZ/aCONAqZ2bukp8jJqdu2VUdC/HJCzJydLx3RkcYhMyNSexuuxqb3no6ROtJEkLYix7sj4RYdaeqX08T0Xj/JoyOhIU+N8tiigXfN6IvsaebXoKnpjdhVqCPNhdvlhivU9FqP7tGRFiEzR3muMFzNTO/ZuD91pGXITE/VNYL44rq005FWfqS56fuxe08daS324Lcg07dq9EWj0Mbva9P0jUobqiNt/VqHmr5LL/2Xjlzi162p6fv0XKaOhPntAfHu9upIOz/SyPQNWLpURy4VBI82Nn1n497RkXDRmlEA2fDhRzoS4UfQety9h3SkvV9rkKhmx3Skgx/BBzXv/qQjl/l9EGz65vU9ryMdL8SbVfhOqI508mttmpZhXKojkX45LZiNBzroSOeQGVOr/jJcLU2rZGxnHYkSewYYrlamdekTV+tIl5CZBlsmkTN55PU6crlfTpBpfXp9fx254oI9Vo8pg3Skq98edPOG3qkjV/p1a2xatQuG6Ug30U352nIfHqkj3f0atDatxVvSdCRa+qxScho++reOXOWX08a0hg2bqiM9/kGKDk3Xkav9CBo0f/hpHenp16CtaY0bmK0jvUQDPMrIbR8+T0di/hm5qPwlOhLr54ZHZ8xYoSO9//FoTfFqHbnG71HkxA25KHr7/CNn3tIKHbnWL+cS0zo59QMdiQuZWZ1EDgkzrZT0ah25TuyZyZ6dSDx6REeuD5lZUhdluC4lEtcf15EbQmYW5o5SGow8+ZuO9PVrEE4k7vhTIaaD3OjP5BGm3fywoSP9hNsAw9XetPt+H6Ij/SUf9DJcHUw7Y35zHYn3Z6TLTDvsnrY6kuD3KOvaoH1OFvMjbv9o02dy+wgdSfT36WTaKxZdpiMD/LMk0rTvbNZFRwaK3zKU1jNu6a4jg/xadzbtdad66shNIU+V1M1VutW81FtHbvbrFmXaIQf76EhSyFN5MdNVn413X68jyf4+XUy7dmFfHblFIgStLzft1i3cOpIiupFh8YHbe5OODPb7ADkTQm7RkVv9cq4w7cW3DdaR28QHcWp8dra/S0du948PPph68B4ducPvg66mXThzhI7cKTF6m/LosKJROnKXaI1HrzTtWfeP1ZEhogE5pJtpFz01XkeGChKvtD40ZZKODBPE0Tp0UJaO3O3XGjnFQU/qyD3SBznodqz7LB0Z7teN/YF/7xaYC/f550KQ6c3s1VJHRvh9HWx6ayOv1pH7L8x677AZ9+vIAzKmzPrupnf7Yzk68i9/jLI/iPtjg46M9GvQ2vQWjt2uI6lizyrJo77Qu00dGeUf7Tamb/vDzXTkwX+QGTPCdGS0H2FtjHuhk46k+TVgdT6Z1F1HxvjtaWX6Ct0JOvKQ3x76jLxlmI6M9fdpYvrCjozTkfQLeyRf5YhpOpLh1yCanUOLZ3TkYZETr+S4Dy3UkXF+OazoDZ43dWS8f+SuMn1FWeU68kjIU4W53ZQGGfkf6cijfg2amL7I+6p0ZIJfazSoafy1jjzm1yCancOKi6Jqol/rUPL1lhAdmSSRyNxuQr5e10ZHMv1y2B+MnB2hI/+WOCD3sjYWv9xVRyb7x5T1J6zLVToyxa8bK3rmY3E64hFuzBKQyk1uHcnyI6wY0edTdGSq3zvN2TnU3KEj06QPc8HFzsFz0Vx4/MLe33JnjNaRJ/zcWGkXD0jXken+kWOlbZgxQUeevDDnrGFhj+vIDL+lyCkaPUdHnvLLYZ0L7W8pxJ8PZl5Y56yMmGd15OkL65y1bdAiHZnlkqEjiXQwrchFhTr0DJDKSZeZ1vSOzuz2Q7NdfpM6snnouEWH5rj8oxfF7mF1qQ5l00stKJ3YPizcpkM5yDJk5vVg//DkJzrkBTqej8uvZAOx66AO+YDU2GJXYdtjOmQBKbs6E5Ljf9EhGzX864A18s2zOjSXXoGFYKTP1KFcIMXwatOe26eJDuUBear6G66ebCO6OenWDz0LpM5jMMw4cokOPQekGJLyF+S216HngZRdrJXb34zUoXkorzxvmvbPsZcryB8YLwCpyGhu2pHLuurQfMUwTiaoffujPXToRXqpGQrD6U1jdGgBkGIYZNprpvbWoZeAlBrB7CfCLpqJLyPLH9S298iNOvQKkD+q7Y3eRB1aCEMlqwVbil8H6tCiQES1ZE9x4806tBiGKon0YlNx0606tAQoObyZknVy4F06tDQgq7Fpd3hzqA4to5fyPMqn7L1Xh5YDKeWbsbF4YqQOvQqkZgqO6tp/jA6tQJZyVAxbi9KL0sJrQJ6qLkpDo984HcoHUhr2MgN3LgGoEFnKLu4Ybt4bpEMr6aVkBZvZIYum6dAqevkHJWesL0KHVgMpu5qYOcnHJ+vQGhiq2KBXtzfW6tDaQC+W/mAuDjRoHb2U8i1Mr+ff7XTo9cBQNja9xxZ316H1MFSeh+G9ZUN06I0AQ64Udlw5VoeK6KVWHnr1/ekiR70Z6MUVxZoRBTq0gV5qlwrDiHOf6tBbQIphK64vrv1dh94GMiRHsWbOyG+jQ+8AKW+wbF/fP1qHNqKGGhRW5x/7X69Dm4CUhlxHrPo5UYc2w1Cp0ZY7jP3DdWgLkIp5rkQuPf+YDhUriFEO4Rbj+hwd2qogEhEaWp2X6lAJagQ0HBC1TodKgZSGrbnI2PeODpUphqsk2HwbzuzVoXIgFWzYNa7rCR2qAFJ2sUrOyzZ06F1k+dWwTmY31qH3gJQanL1THpTrxQvQ+4GIYoNRWN9ah7YhSzkKhsb5jjr0QYBhd9MaVdNFh7bTy5BRZldQMrKnDn0I5HevdenvN+jQDgXhXmRNfuwmHfooIKsxlxq3pOjQTtWLmG/Erca8YTr0MZCKqGZsTg6l6tAuIJVtMLn2wfE6tBtImXwV2xNPlg5VooZ/l2gtnjtdhz4BUhoCNYx9Woc+DUCh7FASs3XoM2SpocSuDddcNPX2ACm7YNh8+iIdqgowjOV6457lOlRNL7W/ZBe5vf9FcbiXXioRMShRYW/p0D56qUFpxQ3H0DId2g9kyFASNjVxH+nQ51rYxL27W4e+oJfyIb3m7f1Ch2oCvRiUk6mHdOhLeqlBiSZEv/lehw4AKbvwRuHOX3XoIHYpb+Beo+CsDh2il3Ivq8OGXS4dOhzoxUp06IZgHfqKXkoN9gBzf2+qQ18DKUfRq/ijVjp0BEj1QlaG3U6HvgnIYkFc0BCuQ7X0UiHa27RvntFJh74FyovpID60T314uQ59F/Ahi29Usyt16Ci9VNiwjN4Z20OHjqGGSg4wnPFmLx36PsAQu9adjtWhOhgqu6JNe8Tm63SoHsg/KHbIuv46dBxZymRkxYW7dehEQFZL0x4zcoAOnYShChsYzstI1qEfAgxbm3bF3osywI+q1yol6+TBITr0U0BWG3YpXe7WoZ81KCVjuA79EoBQY+rr9+nQqYAa13D/EfGADv2q1NgucWhXbx6jQ6eBVBz2YZfSe5wOnQEqqeuoYiPmrsd0qAFIxQZqjDwzWYd+C6jBKM8dk6VDZ4HUKLOrLDae0KHfYajWFGRlVM7UoXNAAVkLJmfr0B8wVLIam4F3qQD0J71UsDUy53hb5+nQX0CKYRMzO+TT6Tp0HoYqEbUys3d++6sO/U0vQ7INm6UdYXfq0CzzAsOcVdPW6NAzpp8hlzjWA7U6NBtIKc8tzsaXg3VoDpDfUd5uVhcdykaWchSbspeP3qVDOfRSspqb3pBbHtUhL71UcuC+5vGxC3XIpyBClC1W3coaHbJgqDRkHzWi1UkdsumlwoZNxdiTzXRobqDXtaav42vtdCiXXiV1dxquONP3+YkYHcoD6l1yq+r13KFbdOhZINULWcnd03TouYAsdinnDz6iQ8/TSzmKHdHm0Nk6NI9eyr1AE5vN06EXAlCs6YtuvlyH5sPQn1J8Rw5s0qEX6aXUYOu48Pl3dWgBvfyx4RsS/bkOvUQvNV5ATV77TodeDkBsAt8bekqHXoGhGsomphX/YbAOLQz0YiVa6GquQ4uAlIaseqcPttahxaY/pbDqDclop0NLkKUSLHuAovooHVoKpOYXO73QPlfr0DJkKR+y7ckI66NDy+mlvMGCuG10gg69CqQiiiU78u4UHVoB5M+91vSH79Gh15Cl7GLn8PnA+3UoX/XCUdzy9PlqrA4V0CtwzfPcZ4/qUCGQYoh7j6/N1KGVQMq92JU8e5oOrUKWsgtv5H96UbCtppfyBrtK4zNbh9bQS+0qkTXyppd0aC29lCwGpfjppTq0jl5qUBjKsKA1OvS6NpSZz67XofWBXtHcoLUu1qE3gPyBbUWf/UCHilBDeYPxyq7eqUNv0kuNF7KObN+rQxuAlCwYxqd8rUNvBRii/MLLv9OhtwPKEwCn19fp0DswVAHAJnDI+6d1aCOQIWkZWUWFf+vQpoCsJqadnWjq0GYg5V6Wm7dfb6RDW2CohpINzJGhzXSoGEjFfKxpt5zaWoe2AikfsjErG3+pDpUAqThkA3Pyho46VAqkHIWsxb930aEyICULDXd26q5D5UBKQxbEhg966lAFdimTWei7XhOrQ+/SS40X6/KwdXE69B69VIjCcFaPvjr0PlCAYdEr/XRoW4BhG7aprQfo0AeBoQQKvXeQDm0PQDFcpi25WYc+RFbgwuRY+1t0aAeQUuM6XuV8g3XoI9RQz2XIGnTXEB3aGZCFyZkLhunQxzBUJrMVWd7nXh3aBUO1cDCUt5//lw7tBlJDGcJlWmWaDlUqiLkczWWa92Ed+gRIxQay7p0u+6gL0KdAShYmBydP0aHP0FCZjPJ93snSoT1AAeVHD31Ch6oCDNlwtuz0tA5VB7xBsMWPeUaH9tJLBRtqTPB6dWgfspQaLc3Az3oC0H7Vi1nJfuO9B20d+lxBqMFrU5+qLTr0BZCKXu6I8s2jOlQDpNRoxttR28Y69CWQminXm75tEZE6dAC7DGOhOMo3/bMrdeggyitHsWT32XOtDh0CUnY15f0oO0GHDiNLXR+x+BYOv1uHvgJSdqHhyOce0aGvgZSGqBH20jM6dARZSg0W+sqXntehb4BUIuIuJfvQMh2qhaGaXy1NX/z77+jQt0DK8zyyna7frUPf4Q01ythVdH6fDh2ll7ILDTM+O65Dx1BDaYijIvec1aHvgZSjWpvWhEEuHaqDodo6BpvWzmFtdKgeSMUhC0fX4x116DiQsou1ctah7jp0All+NaxDh2J06CSQUiPWtPpuuVaHfoChml9NTGvBcvlV2QXoR3op97Jk/zw1WYd+opeKw1amdfuUoTr0M5AhawqL1Jp7R+rQLwH3st8I/ma0Dp2il4oNFvrRT03QoV8VRHJgH1X2yzQdOq0gYp53sg79ZuvQmYCs7qY1dbtXhxropTTEUdWrX9Ch3zBZOaqxacXMflmHztJLycLzc3et0KHf6aU8z3gd27Vah87RKzBeg8rf1qE/Ar1w7/JXt+rQn/RS7mU1P3diuw79BaSil1use40qHToPw8At1tuXfq5DfwMpu9Cw5S8HdGhWkF9DTJ7w7VEdegZImQzDnVf/rEOzg/5h2DXkjA7NoZdiyN5m1tm/dSgbSE1zUuWP5Y10KCfAkLTc8eomOuSll5oOJPNdDS10yEcv5UOgs1Pb6JAVgNhvdPstTIdsGKqYR419xzvo0Fx6KTXYOZgjOulQLr3UoDQx7d7nL9ehPHqpmQI0amk3HXo2ALEg5jXpoUPPwVDFPL1KPo/VoecDvdCwznPRhJ0HpDRkkbq09jodeiHIH/MsUjd376tD85UsNZT25NsSdOjFAEO2WPnFiTq0gF5qvFB+yPQkHXoJSCmP52em3KZDL8NQeR5Z63feqUOvAClZ7IgOXDdUhxbC0B82dpM379WhRUBKDRhuzrwopSwOMAw3Az+KDfK/Bi4BMpwnX9/I0ME6tBSG/jdfX9i1aTq0DEi9PHZguflass0FaDmQUuMy0+c99pwOvYosZXJH0+f+fqkOrQgMCr0a/lipQ68FenViufnzHR3KR5YhOSqSZ4IPPtahAiC1Z0P5qI21OlQIpJTvbPpqRv+uQyuRpR52eZXe2RCkQ6sCGvIq3fUZmXoXoNX0Uq/S9Jo1uZUOrQn06sJy8+clOrQWNdRaeTnLzVHZb1yA1gGpUebdfMEXV+nQ68hS3kDWz1/01qH1AVlXsNyMkZi/AL0BQxWHvNGvOT9Ah4qA1Hh1ZbmZfbsOvQnkf8u2Rn8zQoc2ACkfXmlaFTeM1aG3gNQk6sZyM2uiDr2toHil4dQJ03XoHQU5GlY38erQRiClIbJi8l7QoU1AShYazt23RIc2AykNTZabHqsV5J8OW/Chmg4svoMardeh4oAPScvLn9+gQ1thqNRgCTjXtkyHSoCUGkGmNeJfO3SoFFlqvFgCNv7rEx0qo5caZWS1vrNGh8qBlKymLDdV3+pQBZAKm0aE6NYfdehdBZF7ryJEQ87p0HuoEVj1ZnX8W4feB1LeaGnaE/9w6dA2GKpllMy2tJET837oAwUxXiSiXXtb6NB2IKX89ab9+EtOzPuhD3GvfyNtd5vTTod2oIZyFOnrnqD2OvQRkNKQJSA78zId2gmklgBWog2HnEnkhz5GDeUNTm1HZnfVoV2ooUa5u2k339lNh3bTy5CUghplN/bUoUpkKTXwRt2qGB36hF4Bb0RkxenQp0DKG0Fm4I8NAtAeGCqTg805N/cs0KEqeqnVvJGZfaxZrg5VAym7uO/dV9dZh/bCUGkYauZsLk3WoX30UsEWa+a8fOdyHdoPZMhC38LMedz+S4c+DziKm9ueP7bWoS/+keVdfp+49wJUA0Mlq43pbdlliA59GWDILfHMW8fo0AF6qa0+DH/Ozdehg0CKYXfTO/rDSh06BGTIeDU2vXuGndWhw0BqVnLiiCpprUNfBZTnuFQzsYMOfQ3kjyjf/M7ROnQEhsrznG5uLXbr0Df0UkPJu7m59XYdqqWX2pkjq+S1h3ToW3opWZz1JneYrEPf0UuFDeevHl1sHToa8CG9vrtuvg4dC/SKNn1L49fq0PdAapTxxj3N3tehOtRQ3jBMX/P3dulQPZDaHnBC3L5qnw4dh6FKDjhqxmcndegEkHIUma3DRpcOnQRSGpIqp94geeMC9AOylA9Jy9U3hOnQjwGT6RWzLUKHfgr06m5aedsumg4/I0vFxg2mVbeyhw79AqS2B2TRmyNv0KFTQEp5znorHhmkQ78iS40XGv65arAOnQ5o6GIJuOZOHTpDL3UVTK+Nlw/XoYZAr6YsAW/cr0O/KTVQnoVjwktjdegskJoOeGOnb5IO/Y4s5Q1kdbWm6tC5gCzOlbPaPqlDf8DQn76sr4q8OvQnkBqvvqbVr89FwfYXkPpZHb1enrVCh84DqV4ofypovQ79DaSU51B85/zNOjQr2D9e9Fp35fs69AyQ6oVdIRGVOjQ72G8Xx9sx+Xt0aE4AgmFFz/06lB1g2JYQ7XxEh3KAVGDDcOq1J3XIG2BI2FSX/6xDPnqpsGGFjQn9U4esYP/84jCSPNnQITvA0GXani2mDs2llwobVqKo3iE6lAukGLKMDlnWRIfygFQAcEKc0b+5Dj2Lhv41xe7ZuK0OPQfkV94e+Ua4Dj0PQyWLC0mrw0Wpch69VGZrzGPrvoum3gsKIvci67uzXXVoPpCSxWoe9upFs/JFZKn5hRoDEmJ0aAGQUqMpF63reuvQS4qhCht7aeT1OvQykBpl1uXKV/rr0CtAKkSBHr9/oA4tDEAs9NGX3aJDi4DUTMHz99TfrkOL0VB5HuWzxw/RoSVASnk03PD5MB1aCkOlIXYduWuEDi0DUnYBNd+eqkPLAxDuje970ZryqoJwL4My7qtxOrQCSA0K0EJzog69FoBQfnu3KTqUH1Aek0+/mKVDBUDKZIItqs8TOlQIw0Cw7flrpg6tBFIaIuvPgmwdWgVDJYtp7v+rywC0OjBTuO2pniMML0BrYKgmLCklZuFcHVoLZEhKieGAULlAh9YhS94Cmpou9Yev/j+GNQzzaU/VdUFh++bUfnQ2qGdG3z23XDrzjxMrglqFDA42GtU1Ni5qH/jj2f+2m0u6NZe/ETUQbzQ2mhiy2v5PvrRwtXzaZRitXg82Zod+ET8n9JUZ2Sm/NMsO3fJ0TsbLHXNSfp+aE125LCd00u/ehporvRmhd3tr/pjkTUmf4y0OedMbveeAr3JisM+bdZnPXdTH11A0wFf00K2+jJTRvsj2U3019bm+ebPzfSmXbPEZhbt9xSP2+zJbfO2L9v5gZT7AS96qFlb0M20tb7Nwq7bzFZY7KMZafLiP1dC+nzXsrSSrqP+tVmj2PVbGqPutbRPHW5G/P2ZNnzPZqmkxzYqre9Ka96fPOpnyopVyxUKr8MFXLeO3dbxEbraKO5VaYc13WZl5NVblsFor+sWfLO9jp63a0b/by0uYrulN7OndW9prVrexa05eYoc8Fm5v/KqjXdvhCrv1jmjbPb6nPaEoxu7QvY+dMiHOnnrkRrvw/kS7+stBttE5yY754Vb7UNEQO3TYPXbxMw/Yx3qOtsOGptuDbnnUzmz3bzvyi6n27X88KX/MjGNfuX5O6Bezs1O+mZ7jvbtdTsbECTkpA1/0htU29XqbdfQ2xMV4M0YN8NZ8dLc3ZevT3uJda73Rf37uXfzDrz7v60E+9/TLfA1t+/iKLhngyxhwqy/yzN2+mpVpvnnux30pLeb5jFMrfcX57/gyd+/2RR/Z56t9/IRVGWxY0XeEWt7urazaDzpY7k1drMXPd7Madveyhj10o1X05s1W6NzBVsZTd1rbXnjAiqxLt6Y/+m+r5tHHrbiGGda87+dYJ3c9Z6W0X2YVpq22jOK3rZHnt1rFqTussI1VVuaSw1Zlq3orOuO05S06b2d+wTvUzY3syrbN7HMbWtrRkW3sEWVhdojVwY6LibLHLLncnnekq11xvIc9oT7WXnxvH3vn9BvshqgEu7B2kF09Jtme9U2K/G23Mcf7emK2d8kl2SltPsnxnhiQk1E0LSelTXVO9Hdnvd4lLb0NZTd4M7rd5q35aao35f653uJzm7zRcUd8lZc38nlLicSyq3wNmdf6ioYP9mXMTPNFbnncV/Pq8755K5b5Uoav9hlTP/IVF37ly7RPW2FJLiuzc4hVuTbUiq641PIuvMyq7djNcm+9xlrcK8FqaDzIGjbkdqto6X1WaNRDVkbcJGvbrR4r8sonrOl/P2XV/GJZcf1etOaFLbRO/lFgpexbZxW22WwZZ96zRj79oVX8YpUVFvm5lfnaN1al9YMV/dApyzv8L/vncJe9/MsQu3J1c3v6+Lb2ms/D7BEjO9ghqzrbcSe62GNadbfnPd/DrthHJL7cx+4wt6+d8ls/e2o8Dku+ya5+J8k2yu6wY1xD7JHJw+y5uUTi2XvtYy8/aIe1JhJjH7Ez90+ylw+abFceybKnr3/SXjPsGZzbbHC297b7s1PSqonGhJyMza/kpCyqyomegHO7t/c2ZN/izTg2xlsTNM+bkrTHW1z0rS+srLGvMrMNzu3hc6+/ydfQMNJX9HqGL+PAU77Ig7m+moOLfPPWveVLebDUZ5yt8hVnHvFldvnRCnuDd/z6plblBy2t6DsvsbxVkVZt+6ss95+x1uKU/lZDv2Rr2F3DrKKrcO6OMVbGlvFE40Qr8pEsa/rmWVbNZp8VdzXOfXixdfL4SislC+ee3WQZR963RpbssIrX49zeh63M0FqrcsExK3otzs37y868Fue+GmxXJoXa58a3stektrNrrr7M9v4QZW9s082u3XK13frKGNu9/Fp7QuQN9uLcG+2dwYl2w+CBdtfncW6LZNt4MsWOuekue6Q11J7bbbjd99QDdsZ7o+0F0zPsQRMn2D/fONmOXO2xb0963D7XeqYdfe8se8T0HBycOzvb2+zJnMK68Bzv1Y/kZCTvyEnpctQbNr+l1/tHF2/D0ju8GS1neGsuW+dN6bTDW7yu1hfWDweP6ezzTov2uVPcvoaU231Ffw33ZURO9UXe8ayv5poC37w+OPj7Ep+xudpXnIGDH2ywwi4JsTKXhVqVN15qRRd1sbwNV1u1s3pb7rH9rcXuAVaD91ZrmG+oVfTESCt0JNG7ZqK1rWy6Fbn3aWv6G9kWs4I8usiat225dXLjWiul7yarsG2JZaz70Bq5rtIqXrfXCpv/tZU54TursvgnK/pMg+X9hOjdGGxH3t3Evv29UHt6oxb2mqva2jUvh9neER3sjd2i7NpV5NGwbrb72avtk3deQw78Ij7b+2RrcuCHOd5miTkZLaflpKQtyYkeu9frTWznbYgi6qZ7vDUvvuBNKS/wFs9+1xu9vsq7+I6/fN7cMJ8773Jfw4qrfUVfDvJlHLnfF/nqZF/NbbZvHm+OKZs2+YwfK33Fp7/1ZeactcIWNbYypzS3Kv9qzeLS0fJ+3M2q/biX5S7ray1OvNlq6H6XNczzgFU090ErNH2slfFEprWt3QwrcpHPmu7JtWo88624u16x5nXHKVNwyvk3rMJvii2jrNwaOeJj+R8+YFD4Z9ne/r2yU1y1Od694TkZGZNyUl77NCf69Cmv99vm3ob1fb0Zn9/qrQnP9aYM3eQt/uqIL8xo5Kvc2NLnTe/oc59nteSytOj7+3wZozN8kQ8/5at50stqiUFDMSjkXV/xyZ2+zHbf+KKLfmO1bGxVPsA0OtrW8h5tb9Xu7Gq5B5Kjno23Gj6+yRp2T4pVlHSXFbrnbiujeJS1bR2r5euZ1vTrsqyaqllW3PA8a14B06jbKitl0warMKXUMvrvsEZ+uMsqvuszK2zQASvz3mNW5ZHjVnQvRrnxH1btC3/bywcG2ZVFjexztze110S0smsqSOo9w+24Yx3tMaEk9Q3d7Yo7GeXSXnaH3tfaKWv72g2PuO3Cnjfb1ecGM43IUXVMo7Th9tz9D9jFg0fbx35Kt8PCHrUH9c20M1dOtpffxGrZaoY9fZNaLS/P9p5omp1yzRvG065ZLtczLmO2y5jjMrJdRo7L8LoMn8uwXIbtMla6Zi1Z1N6U/5vIblfwJy7jU5fxNQ1N4xXTFeJii/O0YRhNjWaB/9OI8385yjVujFf/o6OcZ2MubeH8347CjA5S08mMNDob3VyySzJUm6CZixctYo/lMrobHY2WxmVPvDV53JVGjJlDi5AbYw1XXswgd15Mv0RTCHoYZn1+QQKlQ1yAhDAaXIYr1bPWXZ/fLNF0iBNu4JJ4jbgANUs0XPX5BwPMDiZkVV2WGCREaV10YmxJsLsg9xqpuMxdndQvMdUzkAp3YlB10sPu0rpBiVlVtiqD8mIWKyKraiUtBiYGpXreosuAxOTwLSiWmGhGpK6DuCoxqCB3lTu25KrEgtwV7lRPD6lYTNOrEw1jviqDIlJnKKI66VF3RGo3afEATbvQ5QF4RCSaQqCyozOlbDt9puEqrVulrDIdAoOzqo5i8AXiAtQMy5PDDyckh/dKNKuT/uW+QBhGVzcG/gvRwSg6lk9dAgZORIWPaf+UO6uqXCq8WPw2Fc+rEie9pAgxpyB3cwIueBVtSxigfHiVJTCe65Gc2x/uq0H69SvIXS5laVBW1UsocLg0tsQScaVYnIEiRpl4nDIen3SEeC8+1dMI+ekJQTRntDYh/3BCqqeF2xRCjDC8OCKr6jqarRSzr6MfnsqLma88pQiEyojEiXSHyKqqd2N+f0UEldbdCWQwAtOoCElEwecxv0ViROoGVSL+E0UU5NZibWOJgLMY52IUTaLghDvIMJqA7kN6k8T6/LfcmN8EFLw+/0tq/URy+OtufPclcj5Wn9iSA9K5hC8n+Czjc8KNQ+YqoiB3KmK+deOQEe5RnoO4PJmK3W5UFEvLaOWYbhwPMlwldUvxfVwZLn9YEfX5V9Pqvfig2JIjDNVEfLKCz9kERA5IiC2JBx2AY23RQSo2UrEiYZRnv1t1yYtpwDM9iM9gCdSxygnJ4YtUSQvHPaV1O9C0qbjpMNo1Yir9SMU5N24ycE89/RvR7TOxIxQ3bUQ5KZ9zMxpCTHUTqAfQ0E8YRqHbHOX5Gm0K3UFCpHq24qvPqdglun7KlwOoVgGn78RfRSA/0mqRKqmYrYjSujG0rHWj2kBU+wK1Yig/FE064rh36N/RXVK3XDTpCMOZDpIXk0z/3iCRIu5mLPgpoT7/Ybp8KMGfw0guIxKXqZIIWq+I+vytSChKgMcO5L5HxWdI+E5a1MAwmP6HYR7pJhokUJqJqo0ItDKi+Q9aZCYweCcY66r46qS98Kjrz9QqhUlcWWB4VczLGIlCuEkIpjoJVDg6BAFnkDjEYX4i1fN+AlL3KgKbdgENUUNO9orHpldFWmlezCxVotetikgO74IbZsfT5Wcs7kKX9xgpjHTmVgj2zE/g8VHy7XwsRgOJyguExK6K1+qkzhg2nEE5JzM6i4otBN+LqqSiQBF5MW/jpf2SUd6n72lk7sa57WXe7EfnvvDYD/eH3cY5Yj6r6gzoXjc2bqc50SH9sqrEdyVUHJIo3IjM7/isoeK4MJJ59hMt8lSJyx9VRETq7XA/Kjx6ocxBXNML7rudiuTwcmwdxAhvlKRxL8qs58tsPqskbovov1TCdT/9XuRLHY6bJdz/QNRIGP4B0MWpKMj9Ck+ehMc8CZevaB6MW7cDxMTDfR0VcWXJ4bYqaRGniLyYU7jsaDw8puGquXhnIM5v5WaNa4+EzsL9CpqepNlA1N0m3EcjfyHiJN8uFM8WKCLV8w5GEdCpng9oeoqKD9AQVwtRn38tn61UJMkc2AD3+1BXYnC0hN399M0Scc1oMoemuxNK6l6Wvs8kyPonZV7MTqeitO4IIotJLb8Ks5+Z4kHkiWjENknEZffTvEViXkyeKumyVRGjPHthHCQtfmCEfuXjDLfxLUu/xBvh7WR5FW95MX1o7ydK645LHu6rCPS8BQ0kHz2GUHJ4ROpcKlokltTlqxK11ihCRrIgV1VsxtgWTKYShLaQmVVC32OSHDdT8z1oERV1YtIqIqce4ctUqbgLITmtOukb6TIC4ks+t6DQLmdKxJaUYdJ1tFr3H1Yvo5AAl82GjDwGPKQI8RrOjmfGHMbB04ma5YTA3zKpJYcPgMkARmCuaDUAz2tJnV0bXf5DUq/PX6TKC56PSK1GK9wk6Si2xEWWPod4cqthNGKp/JJWIST1cnFxDc4ol3kls24P4rZj4leS2zaC/ACjxarE5jmKGOVJp8Qr9fk3och+uvWmfFdadILzWrzSCStznYq8mAeQ3ZvKXjLzBtHCRZexANUSvXOoeA0/LFYlGkr0ScVmdCmWlPoB3D9jSuymC9lHluqC3LagNfDpLbMnhHDs7ViXHH4Gh0o6XiFNTyK3HX33ovbQeJg56TgwMEZxI9lXSgZJKqP59YogCuGssvf7uPwA6fx5ytmyevSH2ScErJSdxAf9yf53oNlsKh8Vt62iIgfu3xEHz8nq1YZU8jI23IBhSyTHpIp22DCbVvnCYwnoSj6v49jV4qUSiLW02kaXN4THxyj2FpUf49hS2UJ9zCiVOUhsyT5Vm1XFoEhUl9b9SN8FqqTFvxWB/bSslZTaB+JzVO5Gq50SA7PQfa/0LUT3H0COE4t/SkUEWoUwt5Phzi7BMDxo1IIYelGVVBQqQiZVqqeZ7MA/xrKmzLsDWEeUFuQehziP7jL7T4i5fyO3BpX/pstWWU6lgrlTkCsLm5+QJMfCvlMRWPEBvVMJi2I6NpM4KQIZxzZzGRW5/YJK6vLQUQbPGU0Z12egXpLFbqEi8mLWiETJqsVwO4yR72FfM0kwH6NkNF8+psVg2WCKXy1xwQ765qBXBegcielNjOcsvryOo2ZKcliBg6fT/GVaPS4VeXg7iy9eVJsiPCZATKL5MD4ZUtGX5iP5RNP1Vkmz7ZF7I5/26NHRqTCMOkL5BtxZIQ4Yjh4vMVCOUWojIVlHdpD/e/pRBI6S89M1CPcTsqHDqX0VwUjcJr0YPA+qsHmWI4KMJlsEVVKxWxEFuUcoySiG0YA+LhKvQd45Ie6Q8NgHQ9nBsHkWAqYGLvxCuDuE2jwLwdGEz0cwOSAKbKHjCZotVSXybEWIRmrzXJ9/H748SPNkKnaLPLG0jFaO6cYbep7lwKEIDmWgH8Yz2b4hi05mpFdQkj0krebFuOGh5VkZU2kRkfq5zE/p0sAAX42mRLAwFSeIFCkZnPcVEVvyFSUtDONPxrEBK0NIvvDIi2nJYrWJ0W5JBVKEELHSwq+HdBHFvnI0FaaiukiR0nBFpC5GTdKY7HWFkC2G2l5J1s2qaoSKh/FMH9H5KF8exFVHqUCeEE5OOYzfSsX3+9FG1gXh8bU48h2a/4CsxaokbGcpoj7/QaeF6CtdJHMrHpLxhKmUSooQIlZaKD2kiyjm8EBTYSqqixQpjff/49ovo3mBAHEgSjkvGwZqdJHV7COGrgvBuJwBulKi8zH814Oc/xgCOP4LkRzeV7XIqop3utTnD5SAhP9AWTM7KsJZkWgRW3Izg9KXsbwZV8BDCGEqLZQU6SJihYcqTxJxyeHPYnGMrBn3KkI2hyykEnFfouUj6LEMHc7I8WEQOvSH2SAqcyW9D0LdYuQvY0hrpOIAdpyFz+WkFuJJol4CLNXzrCoJjtWKYJONFBIxhtE/GKX2oNR54VGD2qeoPIwDj8sS8c0/hDo9x5Y0Iwb9BNYYZIJa2viJrKo3EvD/YUUofrJHlVNQbElfWUt3UFESLwszAdufilVoHMM+13GFOGURzi2QthsUIfk1OXy/ZK8qKoKIry8RqJbqWtw9ki+1ADhFiNiSNXz5Em4VErBVtNhH//epOCIWbqDFSSoWqRIpsxQhe1o2R5IsEgnHvXg6hrJcWkRCrKZ/JIyRIoQEbHVSLJUELLMfaxrBZzSVXySwjMyiaQEj5dhi3G24YkuaktuIzryYIiThL8MY5xBsE+IVlFXVhvYQ9fnPw82QQ818h0gO/9KBAnyMJWoSDHJYFOT+6LAgRzjt6vOfxKgwYTHLIVI9WwLQTw6RHH4Jg3mpQGEOUZ8fq7gj5rYAcbkzzobR2CEkC8gKTfcqh4hIXeioEdDH4CJPZqGKFCGoEtSZjoq4AAmhpoPyFP9Qwn/Px+2bghXhj8MkRTAId+KYU1g2mibnJWtMZhCCWVQsRpfoZslX4R5b8rYq6bJPEcnhPzkzRJrLlIlIbc5sZw4ZRhhTthgJYbRiqIWQaZfqaU4qPiMjG4yjHmEz/RNSmKlEJkEQw2LxjiphukgR9fmyChHi1UlT0LAkPjk8DY2ZBM5101yiI4kWzBduvP4hcIDjAUoSV0RqPD5GFSEk2FM9d9CG6C/IHQUSRKDORJX9sq98ngqJutWqZMK/q4isqs+cuMyLOYKgRuhXx4fITQ7/BeRB+v9CS6QIIcFOSFKq6D8CsReRsq1X8+NdUJlB0ooZlOqRWD2JSTNhSousqlQ0lUl3BxUVjuoyLaUUKf7l9no8WSIDdz3OfgopcgfaXZpH4fQC0pvsGVqKw04zYJdz8NmuSlosUIRsf1QL2R9LF85VJBt4cAHGGAnThwklpAjBCOKtXeyHWkuab4NSVxIAI1GdnC1MuRGjYrsqlVghRA9/iyjQK9FSNIWHqC5MpRQpMlwdFEXbDhjxPT67BAYcYJ18eQmf81Ry7xxb8h0uugKO21WJqwsVUZ2Ei6SFYYyFuAQnJOO7IMngV2Hm98TAVchEihCyU5QWpXUPSMCOpaIjdudSnpUsWghRTBbdrkolVgjRQ7UQxaSLSFI8RHVhKqVIMaZJ9uoBzUwUgrg0zJK61g6RHD4Y+U0k9Qz6hwD5J4wVobpnVd2I5hB5MS1wXZIbPrLL8RMKEhFCGAP/U04Q5hcI9jsJdAxmkfMTtHUaUxpGulySb4tX7Q0jwulYnfQGft4t+3M5DSmiqZIIz6scojppN43nC7TbsUVOK5QOoaAAZ0l29fk+KulYn3+J04z7AqUDWkUGIKeNSnaldY/gLPJFaV03RcgFo8ooqZ4XsPQRwv8eiVjZqDUmqLW1X85akqbYVzlrf15MWxlLPrczL8hs9flyIpa1f6UqYfquIjh3YjLZUS7GJP9VJ30Ln/PC4zj9TxFfP2AAqTa25GeHKKkLcpySHN7ZIeRaF9PEF37vxJZUw44UlhfzqSLIAh/BeC4KlsG3r2Sjt6gowWUraEFiLKl7TlkecIUsGT7kk7mqk15VhHNe3S9hvJ0KSXZ7EEj2G+U5TICO5ONf+6uTvkfOGkTUwq1CUpm0kGP+p3zIS1yE00IS1RpV4iUnc8nBS+U22YdJsqtOSuRD9nOOc6v5dHakcBHAlwdhGMmHDCoZS1JqddJNfMixgjqqO7b4L+az0YWzRX3+DYrIqnIhUl3ML8RFExngfxEuZ8VvjZis8aBypLBlS/04FRtRu5qUpu5wwvjSQIt7EMlo42Y1uMnhb6mSLjsVUZ9/GC0ZbWdgGzGtDbLJOXFOE2KhnmgJpdtnYpgk2434Q+7juZjPi2kKMVXiYA8aQhAhqMjFvMSMEHCRXLQVLb6hYpeMykE4HKDiE8z8TtzzLsiPfNbx4SYhL2aBIqqTnkE1bhIk/yaHf0GFOPBDadEDXd/hcwXqrZD4uxRkmmS7Fhjej08HurQT7t1hdgStUmDGAZfDPMgy7iHzVEnFUkXkxayjRZG4dwsavsf82YaEb2VxqYQIgs8+GHMxX1Jn4rhm4pI/MEIu5utBM+XE/zmbz6p4uTRhgezPaBbQQi7mneFV52nn+LJS9lKN6cfkIC7iKWUL9TMDzaZKdi2KSA4fSuN6uT8ZoQhicDIaG0y0eQjhPC3xh+WM3Q5V4vVvFRGR2kDJeVqmvHOelieFExIhsmKJPaFUcJ4uyJVwQYO8mPccIrbkEGJel0nwDVw+RpZMlQPSeSeanKDzelWiwCJFyLkal8kITcYPB2E0kordUpHMlzK6OKar18m8mApQZaPsO0/INtGD+RAFuS9DAAXaSD7sg4BeskI87xD1+bfAtKt4ZBDeDUbLwWjJ62RE6hC+fExUjkJcuSz/jzGJ32b5n6lKbPAqoqRuLkbxOilcST5MpPnw4nVS3i+Z0f3RfR5Iv34ldV4pS3HIkyhwuHSUR/Zr6iHkehQxymTeUcYTMrWI2hYvccS5XrKTHBU3EYcbuELndTJgjTqpkoTi6SdxIG9ImC2XroogtQtLOTs5bWSlvRnjukiGjlZEbEkYinWTHO6i8dUMs0lvtR8Jxpi+ZPn2SEuQHUQMZg8kGG5VJZpmKIJbYqdFbIlXdZH3XMUj1ZOjmGZVZTlSZJvqiHX0ML5TJnjIPUMraN5GEVxrxbMTrcBbzUqzqgZX4LoyHgoqGNsfcUxNOY59BHfXlfMgzBQ6Ws6g7KHvN+WS5sgLUtEarZaVx5Z0ZYJ3LydSbmTK55fil1ccT8m6p4iI1FnoeTYBaI5D5MX8GIDaEeUQAtXnv1iO2RMJjB9gPMSN+yqokNeAPhVkOTf7hgqUk2Q6tCJgmJzQDEOOEixv9fkrIULlGmqtQ8SWdMFlQMnhAxyCIEINRq60bqpD8EacoKAAH/VEERhYlPMPvpwSFZFVNRSljkuiuE8RaDURfQ18nwcHZrZc7TovEiWqpIWsYVKxg8Cmoj7/E4ZJFvYqfNlCNPyYvsdkHu+g5ns3M4SKOjdNNzFt6xG1XpVMikWKSPXY+J97X5nYcrMvE5uNsrRIQlwZlYmIWyep/78GrPwEg4ngmCTPRf4ZPgprIZhjEECBNnLCfyqBjuKS7mjHRldO0vITDMO4HTFEpeRx+QkGYUaFW6JyGS0GsV15R5UY84EiYktkdSfU5a7Y+QnG15ibKNGwG+IqafoRRlwF922Y2kO8KhZJzL+jSvquUAR3om71E4ysqlyadiHFWvCIkDHt6dgdUN7/NDOb9izrxJYisqr+wlqeZuBEMEzn8wCxztNMbEmThIueZljRSCKy4Mqs2C8VlyCrASfdjTLasi4ZXEpW1ypFyMOi/2nmb/q7mO/yhMzqKrfnMoD1+bKs8zQTkXqEIGAnI25BFP6uwm9fSVbdDvIDletUiRMWKEIuL+S6B7/9C0X2I3Ig5buiYXe+rIVHJyTkSgtR+QG6RFLZSwKoBy1c+CIFoFoyYwYVr+GHuarEMYsUIauaepoRH8jTjEhQTzPyqwh5mnEujXiaiUg1GWb2fKV1f6LZGfL+cfpypxmRWoNceZopJ5DV04yzIAcGxv80059W6mkmRBE0ZyxYv+UxQJ5mJKvRRY7QufFskRmhfZSdxKBQktcdaPgwA/uom7VWslkOGh4jDp4Tx7ZDqVdQNR6Vl8ieUZ6lViBfUm2+TKJX6b8S9E3K1eK2dyHWUvERvnhDKj5DsbeorKKSpxkhZJcBd7le2AejXSAMSlbVuyCS+VaqEnFzFSFvAyxM4qVbIT6H8414ST3NbED3vdL0O3T/AYYdUPdPGVDZc8md+xTkN5WJMJ9+ckX4uiqpKFOE/OJCgouKI/RvyoD8iFJEaX3+XxDnQU1C7oSoLHf3NbQKYmXiaUbClQkj8/0dh8iq2ooCC2UV3qIIpscGvJiK4wuxhKcZeW4hC3BTKAsVTzNZVePRUZ5mnNGUrDMa6iVZ/n2KKMiVGx+eZmS3xxKOsZuwr5nE9nsoGQ1HSQGDJaHv5IslLviQvjKeYugcabqRvs/Qby2VM2WiLMef0xnTBfB4XFrIj3OyaCHLzRRpkQExiea30ipDhiAG7nI46UjXW2XUmsL9Rhg3UpWo/BfhU4e9EXRj5yqHCbEhYJT/jiSb5uQXDlCKqE4KgvHOeLy+hBkzDR6jKckvEqjy4E9OhEeeRO50Rl3cu4fyC9FS5tRvcB9KyciJ/TK2EpdSkl++UIRhnMI4WkSkyrtMA12aMbYqR7UBlaQlrZT7QlmL+tH8b1qdET2OY+VjjMUuxvq9eHyxTqkesMVwVSf5gJi+5AFFOCmAs1NB7k6IxhixDybXCftv+DIG1keRiVVyIJWbp/r8owBlcuKQFtVM/734njNcqudDvkiQyyr3g0T9fEWQuSm/lsEYTn9ZLhNoVSJHkK7YXYAuHeGBVZLXZA2UCnXajEjtivLBfAbw2SeZZyTICnzv2GJ8wo6X9ZcBIb4lH8oOgD3KPkWg5t+KiC1pzqePrDDtSdlX8yUSF0fKaFyBj9uwu5Pbr7/F1MhEOeXW58sd5AeiRDNWKEkbv+ElMg3bLFKv/GLiDVUyr+SZGEIeAeQAS5xvUATjUqmIgtyvMJxjVmndzzhOKv/AvQcls0maPU6LYOShgGSGVI8cB4PQrK3oLL+eaM/nF8R0kmRQC7PLMUS2GpfL+v90gBAP4oqAT2TYj1K1RnRqS/CAyfsSpeyhVkEABdqoX/bI86D81AMen+H1XTK2nwDv48tO1DwkFfKiexQjtlJ5XObVm1jzE75erkp85FUEu1HVEqtuoekBKgYBfCw8Eqgowxl3wnyj+Fmm4Ou0kAS+SuTLzcVSceLniHqRL8dAZknTBir+RVz9QtlZuP8AowPMuIPweFbmwy7Gx0WMFxHB0TJz5ZdBcWWyTEiJypITmBiEEauSLGJfxHNwgcfuePXLHmmhuBtGE5qeZHJdjg7bZAYlwHUhie4xVTJEL2DEQlazQjy0Q6bUZuw+Q4utBM5lomEpCl0HQ7mwThb7Xwe5j88r8Bgt4oZjUJYgTamdg8h9HGtekZnzEhEvnllHie/kSCW/GHDS2WlxSBRoEON7DxKaSMzMQZzcTRSokgHZowi5x+TcLYeW87jqVyLKGW51PUZUlLGiVxAjv+AI9o+SBhQhrCUNoGeqIphc49H8FObMRPh58ZNkaLkVXIJqrGuy5RWhsm2WEi3qFCEnbTk+o2czov8s3VoT8DViazviWp7429IqV0xridL9qQhmBpDq6vN/RZxc1H1OJTd3EoUcwco4vaiSFk8qIi9mFIy58pJfIeIzbhD6oHFfWfe6UiG/4upEC+7P5LJDEey/2RfigYArZMGLwwWowl6VQRkJizg8QH6SgzfORNgDqLJfbqGmUSFvAS+qkrGUUZZrqXIGhlybFyObwUZIP0Q3brJkmZbLK9khKCn1+RLUq4nnk5TkEKfFXrocQOwR8XMlOpzEk++oki5LFFGdZMOUFnKiIXzoIi+cFVLhpsUaPo4t6ngpxzIxkXE6rozmdI1L7qggKS1G5cEV5FkqOF6yPWKWcLysTvoNoq68pK4tnI+Vw7kHor4r54QO5w+k4k6CKp+KkWh4TTmxJHFSV0oG8j+4sfGjrSKeR8dz8mOR+Q7xvz24Aa3AOS+V44eFSDoJY7kkD6tAl6fdDGmFRCR5RezopwwKGGasVvvQRW5aVDDomYqQ80B9/m0VhEUb+vWj+VGs7FTBaK3FOKMCDzGE5eUkxitw+ehymvaCmFcuM59bMsdKtlvlBbmPIOqXcsZgDuY2qpDfAEhJl62KkEu5gtxPy5kv3+CY+eVSSnThmG9gtlseoL5SBH2+BFqD72UT/rgEqswc+fHnZkzdFk/FKjfxw7PWs6okGEYogocZrOuUgJsOofyzCWygyBZBbrwib9YD6O/fowghk0YesUUiFQfIlGdR8//2iC2PmWpqy+9AZK5HpO5xq8kvz8OSDeQ3lZIeGLfafwg1kjLZLxCymWS2y/Rfg1uDmP5mBW5tgEvvCnlKLq1LljEuR2AqFc4oynIv1IeSYzcoQo643JqL96owoSXjITF0g0yUWlqkoUYt2j/rVNTnr+XzJcC7bthLF9n2vE/JzPmfvVTLtkd2mzKtaRGJC9bQP9KRIoS8CMn5uiC3n4gdAEN5+BqN6F/lPXMWFR/i/UWqNF5iOso1uEQBc2AoTRl9ohS5C9iNuxF1VPx1DchCpoDkr+PliJK81alCIp5X3Qpm1DNEz3UyhecyyJ0ryA0JoyRAI1LXI29lOYsuZQupqExAs3gSRYJcyDDJD5L0USCgifEs26tUj//5gSzsEBGp3UnpM92MVleGrzdWR1ByRSj7LC7wEHwGy4vi1ZDISMt7mJSYNEkRzFunBTMa/dII182MJDzEAmEqiosUcrP4F7mBlxyIRBycLWNxA2MxHE/fAhIj43kfERyC12bgqCPi6Xl82YhGb6iSLvJzsY1YfsRpIZe0ThcT8+Ah5yxhWpDLtQlS8KnjAbVEyuIkuYUEJZmcJUPugoRA+EdoMZddQBms+0pAvkWF/DHMq7RgIYpIfQ62MWVyqpKSAb1SEVybMSgsZiQZ+j+CS4YyjmcS6BLMoPTH3gG0UOvDkwyXvJbLAwFLphNZZ3HYbRjC7E0Ol1Qky26hKgnqCkVIKlKzV3aeMntjS2pR8LwwrYfHKdAfYMykHcXWShHVSb/DmUmbFxPuzF45g6JeBXHguEKcYtGI9Y7dlCIiUt+G136JiO1UyPHJ/4JUWncIV49EvCQ/7IktOQa6RlWotYojJC32McE+pYIZ50xwmZNrVYlP5ikCV8CUFhKwskSW1rkpmZNyZyKLKHODVkpKGBUPYq3/BUneq8mb9L8ZgJXZmZyiumOLelWQux/5zTtGizisr89vE3DDaTqzjZYrFEqDOPkIN/MiKpc8QhDLW4CGJMhf6fAQF49UH5rXlcpdupRoLpcC8vv/4wn+n/uvoHkXpsAshpenE8nW8nN/eQtRP/e/cKUpe1lFOBuTETIh5QDSmS/x+IJbHccxWzAqW5Uo8KIiuEnDfAaIuUDz00y193Bwe3HMJ8jqy8g6phtvkJvq8x8itvLliPMItT/Js1Q1THbI9JyNonVy+34rLBslqpqI1HAJmWo0jZYfkjwCdIl47yGGgCksrxuKYHPrQPLHEqqxnChUd7lsUQylRomQNkqo9FJqCB+lmHAWwihE3diS1hhzWP7m6Siz5nApN7lYOEbcOw9tW6L6PFSbIxE7D7e+C1rCpKuXvfxR/B3KqLRGw1AJrhhFSKSoFvKzeekipeIhRHXSDfC5i26cJdgzgdzGKn0dXfv1J7i6KoWEqZQqlfCcDQ8mkhD+gbyWfn5CTT8ZSSFQKwnep4Dvg+V5WXDlZkaeoLJhyaRmpSDI5J6ySJVEwx5FyPFSJYb6fDlrnqW/HC9rhGkbmhfDp42z2xZCso1cMKj0E1siWfERnCgvUSQomch4hARepEpsfUkR1Uk58CHJyWBL1pOIVGlQ3qkkL4otkigZvev+IS54QAiJNHEBqgghiUJeRFTmcC4QgmA1FVX2S77NpUJ+qpavSjJHqSLkT1fUnHbynOy2v0NHZr1MY0kDUiopQkiiYAtLSeaQjbmkEtY/xJJb5OQmrUSKlEiRH3mcRPEsmNJCTm6SsCJSb6aiwlFdUpqUIkV+yiGrmBpa9ma0Wiehu9upkR+ZKEKuhKQ9uUXOcqQU2epTyoH+WVgOEaijU8NJiSiGqE662+lVkBvphFFAlvGaP8poJo+Q/ihjV65gRcjrJxr0VQQOG0zIGKx//yZkQuSYmEeFvGuuUSX+kdwmR7gvnBZkLiyXP+P7VfFAToMi8IscLeU3C7LLo2lJXTt2kHKHdaUqmXzyjCYVNxOQLlm6hsBIQk1KrmSFQHm5rIj7h8iL2SwrSRydqhncXrT92k0kXkkTGakOqqRCWMvCIZetB2XO/IXyuxm6v3Di27LMCQFXWbspHULeUxj3j7BrD523IuIrkbeOJif5skCVxE62IqqTZE/zrbAfDnEQEUl8PhF3Xkf/d6mUPLBe8tZ1dEGMDAalYawiXcnpgg2YjENP2r8msZHoELIIqrHiEgIbIJLDX8DCeTLclkMEuv+XsSbxSHoVyX4CxIEouRqS+z5KCSV5c2WnE5H6MgSxKRtzEPG208ZYiZ4chZhbbdwoM5rZPEHUK3PYs5X6h4gtUW83uxxCnijULxmEkEMYbdoTEH7iAkMhZBfsj3ghxDJkVNL/XodQMpLDXYSAn6Ct05jSMHKJePn5DemyjAHyUDugTLaJso8ivM6g91I+G/l0lUF+mOVgOkP4ME4pCVQ00HwjeaW1bJXO4MluiOmLk3kkk2nPqwN6r1QlE2CPImRfpH6GXJ8vf6HTjQq5uoAHtwtEqmwzL4UPUoTgphgtW1KBHjI9RDF5UuBGUJZl2V0mlYkUKR2r5ICKirsVIbmHKS/HC9F3HKY28IG9EHJrkBdzkg+JX37yUZ0kv7KU5N1R1ooKNghdlRFSorOcpbui8z10VbeOVxF4fyPpKoepEKkeSX3x8LhXdmFDIC6luYeuxyXPS65Yy0A6mhrPEDM4kf4MEQk1nlJ+AzEfrRg9eR1RRFZVT9wAZBitHEJ+ecMlvUBvOUSAj3DsiktekJ1HUxYpPyE/66RRV2LGTwgkf29PSHVz5AjBbaD4oxvMunAH1QFNI8T8VlS0hp2MdhNxUCURYuCxBSxMZ0RGPitasLz+daeJ/DA1nZBpJ6M7n616J5jNx3Q2MEJckCeEPHPLhYnQxKwcCkJljm9yiFSP/yd44gdFiGcwVfww3yHEewoK8FFnM9FDvjBxo/8h5NSEAfK39b1p25mSc5VhXEpaT8OqRgQjJy/2MvgoqUxemqVk/OYpQn5JqlpUJ11Gqkxj8f+ByQAPWVyFqZQiBbX+0+8D5dQEt0F0lpVxBAjnKvl5ACsGaB6joE5eK0BlnpWpkun5pSLkx3CqRV6MC7eGIE9eROAhBgtTKUUK4hwPGMb/Ag==(/figma)--&gt;&quot;&gt;&lt;/span&gt;&lt;span style=&quot;&quot;&gt;If the user cannot access  the idv this will be the ONLY IdentityVerificationrResponse&lt;br&gt; they will ever get, regardless of the IdentifyUserRequest or the id* sent. &lt;br&gt;*there is a cavet about what id you send,  as providing a non existing id will make the server throw a 404 http error instead of returning an idv response at all. Although this doesn’t contradict what previously stated, as an http error is not an IdentityVerificationResponse instance, don’t rely on&lt;br&gt;the api always returning IdentityVerificationUnavailable if the user cannot access the idv.&lt;/span&gt;" style="text;whiteSpace=wrap;html=1;" parent="1" vertex="1">
          <mxGeometry x="-600" y="110" width="560" height="110" as="geometry" />
        </mxCell>
        <mxCell id="GgOMKx5yuztOSWMcXEmZ-17" value="&lt;meta charset=&quot;utf-8&quot;&gt;&lt;span data-metadata=&quot;&lt;!--(figmeta)eyJmaWxlS2V5Ijoid0dIeTZWem9zUndhVGhLVzloR2ZFdCIsInBhc3RlSUQiOjIwMjQ0MTg5NTEsImRhdGFUeXBlIjoic2NlbmUifQo=(/figmeta)--&gt;&quot;&gt;&lt;/span&gt;&lt;span data-buffer=&quot;&lt;!--(figma)ZmlnLWtpd2kjAAAAvjwAALW9e5xkSVXgH3Ezsx5d/Zr3k6eIiojzYhgQkXzcqszufE3ezKrpUSfJqrzVlXRWZpk3q3qadV1EREREREREVHRZRHQRFRERERERWURExBeyqOiiP3/+/Lmu67quu98TEfeR1T3s/rN8mI4TJ06ciDhx4sSJE5G3Xuk1wigaXAy7Vw5Cpa4/16o1+0G32Okq/tdsVfx+uVpsbvgBWd0L/E4m7xlqv1kBzgW1jWaxDpQPuhfqPkDBAP3AF15LhtZw7gfna+1+x6+3ilJzudnq1tYv9INqq1ev9HvtjU6xIvVXHNivtJqSX43zHX+94wdVUCeCst/0+6Db1f6DPb9zAeRaFtnx23VBnqzU1tdJT5XrNb/Z7Zc6tF4uBtK305m+nWv1OozDl56dCbodv9iwJeTPurwd8XXFR0cRQngIWEkTurizgzBBQVXpt5qmYWUyW51aV8agm9Nh2N4bRCFkZYq6piWIGq1NA+qt0WQ4mlzsHI6FptlqPux3WhSoVsWUCwc7W0+i0AelKq1yr8GoAHW52NwsBkDeRqfVawPk1jvFhtDlS61W3S82+6223yl2a60myMKmX+62OkBLMk7S5XrNsF3x6/VaOxBwtQMR027m9UTH3+jVi51+u1W/sGGYrNFUs+JXEHdKd7LrPyRdOhXUa2VBnA4uNEot0ZEztSaNNQ0WqdbK50VU1wXVYtvvb9W61b6re3251WzC03TwhrLoY6neKp8nd+NWrbJhdOsmeDVkpDc3/EqtCHBLtbZRrfOfFN8awMAO9jYH9hF2p16URm/fKgbVWr9Ly+Tu2Cx2asWS6f+dXQc8zgD9MvIg9/iYxGn2Exie0dcnBnuDg3BrNN/rho/O7RQ9PniwV+z4lCpqO2lqOtloGSXyuvASeaH3ZHNJttLakg7nryXYQrvYKdbrLCB0vNHvuHEuLaLr/rpgl/3mRr9SZAhF0/iK5FkqPcmsSma9ZrieMHCrXvFF1mtdlo//cKsmvTzZ7vgVfx21qPTbnVbZD0TBTiE3vy7lp2MF7Ac118czCarRq3drbYM82yg2e8V6v9Zs96Rv11X9h4pWg64vV/3NjgFvaFPNoW9sMWwLyixLz25u13vS/C3FTqe1FQ/zVpuLZXFb0Gs06Ev/XK9pZhzc7UaJ7gjavl+u9ku9EnMI4s5as+vLmmedtzrFDcE9rjQOJ8MGK026UwyCfrfKTGyIzcEqdhrG0ulKsXPeF9aeG6QoVE6WD6ujhCEhmy+36q0kVzBKaeosBax/A5kFR41KC4Umv2KrxNnVVFlPBK31bt/wILdWLXYqSc5YOL/j21V1yn+ojJzsyE9XzWyfCYrdXrLwz5pWAK6r9xBVK6h1pYnr24PRxGnvStBCt0EqNKpSY1poTboKRicoSY08sDiAgkJTxUKAyyU4iJzS52sNK+YCVu9cDWBpkyUkRm65ts9mFOwMxqGVPrtJx++WjeDXazJOjb6a1rpWb3P+7m6443qcr2EuOuwlRRYQharSabXTrF5vYbyYyWYFO9KTDnqlYvn8Iion67dsbPRSC42qoRygVa+N3STV9daWAehC1/YhQCPq/XKxLZqZT3MsqE7Z2PWCMK2EO9PZYD6aTqgTW29aZn6RK7BmuLXzfqptXj0cyHbQnY32ycV14N2v+m7mdfNwfzuc9SajeQTfTlGGqtq1h/x6AKDpNTuiUHrl6SSaz9IZXmbmwSspN0PSjaJsaB79cGLPBWX2Q4D8OhwrfVuj4DKGeimYz6aXwuJ4dHFChYSZwswzsQC61es60LPE5cEBGhmPh+Ea1dCJvfTsgha5yCByNus/2KvV2TQxdCDzTqfEhNktu4D4UD4MaIJayu4Fy6m1799NfiWTv4f8aiZ/L/kTmfx95Ncy+WeSP5nJ30/+VLnWKWdbP21He246Esk08AI6YFXJ3/RlBDoeuFeaTsfhYNI6CGMFyfeadqUiRqrJ1gWsg14J22xg7yGzgI2+GuFXp7PRi6aT+WBMdWcZM3OLLhspeOd6bLrrNdPDtPZmOJuPWHqCa7UpylQttbrdVgPIa0wPo7B8OIumM+TDtlDE9lGgyp1WwEqrdYC1f8GXpYfqkfNwGU1T7SJDwRaWUXHyeSw9SYGkXKsDLTXEokqVZaYYbxNoJZk/k13dZLFPZ43RbCYdSFaRmXVSbQAsEJaRHa0rKuxVBtGetSdemV0YlEoVXBubY9dDvt3cAKXOtX1JdbApideuiO+Y8x89mM7mx9dQDh8Fk87m5xaKihF4KKZ9HSOSJevVB1emh/ON2WhomeTtsspIPO2gZ1dZLq3THszn4WxCEVS1tlkh2Ghjq7WZz8P5tBNGoxfBOhGR6Y6RTNIPnUCeVOvODic7Tv28Si0QN0d4KlxedlMAHcyvjMMgdGNn6jpBy9nHLs4xiS6jXVZX8NNxNZpl2VhyXb/RZoM1Pno+ZoMw52Eiyav2G0Ad7xYYjsHOJTuNyZiqGOiHka7pgWajxJk0sKU2ek1zV0nXitQroWRiYoBzpkJ5ekiHZq7e0mPVQ+xucnLFXld2rnyGVcGwOncYzUe7V8g+Jpd2sez3MQX2qJCz+ZLf3bKOAVKCT2Bn0RhckJwVgtrDfr/bwsoYAS0gUDomudZo43STkxJorDTa02gkk8t+Asp1XBVLiL1njyeGbGsmtpm9hmNLsQ1audQWZ0Xkpg/qmNvxMWhIJixZmrWTvBJPHabA+l1yzCSvex0zcSU2ZNJcud4yHmseP7sfO93kC702/qzfN85+v9NrdmvmeLPEKqvUxLsxCrBco2uzQablszj+LH/DXRXXab0vVdmayOtGi+MtrimwZ2FbkKNWVVww4LwtwJkQsoLNGc99CSq8ZOMYc6I1I1yp4E6SrlJ23r8QVztBdrNlj0RrwHYcVTOXJ5M8K478KdtErDinbZZD3KbUPtOdDSZ2Su0Ib2fD5ZjQ7bNDsPWKLCBTrGSm2FTR65ygST1zaumvd1rJSSGXQcU7RT6Ds3tCIYNJNoWldi+oWpxjtpxiYl4rKcqyWk0RCacTcg62OMdpLcXEnE6mKMsJMcWIhNNp21EmEaKY2ZkFZMzv7ALWsrxuAZdwvd605LCO6Q1ZXMzzxizSsrwpi0o43ox5q5X7UkbuFnxHwhDFJlbPLMlbOSa08CZTzG3+IGIF2xk/TeSi3CvVyhQoYR1nNC59JuuJabIeOTVkiSVFeaFbwBRs3QXckrXqSX45aHfslrCygXqy5SaIVUeaIE5YyCwQ1rJdHWuLyO6WmI+Tx5BVjkigTwU7s+l4XBnNrCWh026NfYENAAkbA23rYobmYg3CIUZsHlLuP9RmL7Q2tQwHcapMTm/02IW0FxHNoTHgZaXHUzwjA3rl6RjXQ+dnalXpi/zjbfNPbsA/eeudUPlRcvoK/3gdUFCniMv8k9vjn7zhFMynB1TYEVi9QOkDZ6Uh8BqD+Wz0qNJL+3fdRV7v33U3ibd/1z0kuf27BZnfv1uQhf27BbnUHsywyLXJMKSed/FwNFSPZJiuKc8eFyg8GowPQ+roQ3N0uFN560ipOdgPlc7tDvZH4yvQ60j2agAPJvNoZzY6mJPLCe3mYDYaUOVwP5yNdtZHFw9niJbd2R2RFWrHfAJoIgsmIAhsmlmsGhwMdlDqhbqEGnAYxIiZvCaG4U6V12CwLpMrA8xywJASPDAw/hTqbOY3W7s8OIhQ5rQK688cLzVJP854bZ+jnnQ9B6Kf5MRFJ4goYAEUg90AXMrwb8dyz3YLF55/8eTxngBMfwIjZCYnoaqh02apaQ4FxsCvh4O5EfCf6zYnQIpU+Z62IXG98MrtQPA56Q2p6SBpwQURlwjQiCu73OpUmqQrxfWOlK9WmsYYnWj2GtKlNRxuCaSdZL+UIZ2q2PS0eOKkZziwSnq2WDTO/3Vlm17P6UfSGwKbv7GzaeIeN8nCJL052DKB21vKwZaktzI5gr+tXDYRvNsD61XdUa2Z0Oydzn95XKvTlP49XoRC+gT2N5nKJ1a65oz7pPV6Ucbx5MZGR7b3LwrQNdKncJqQ9r94HeeX9KlVm35J1bb7pV2b/7IHbfq0tk2/XE5IpE+vr5ck/xWttkmf0ema9Cvbtv5d7fNNkdPddcwH6T2k0s97O9265O8jlfwzi6XOJun9xdKm5J9FKv1+YNPyefYmHSJ9Tqm+JfPzVaRC91xSofvq4vmqjON55XPm5Pc15XWzEJ5fbpt8sdzrCF2JrV7yZYybpJV1y98neCf9WSe9h3SD9F7SKs1KezVS4X+uasdDaxvSn3q1dU70Bg/W+CfNGo4Eaetc+1kPkLbPtR8QPg+eaz/7LtLOufZd95EG9XMNqdclWCv0PXY1mZdNcW5It0ilHw81zjcEf6FZN27Zw83e+S7p17IBSL++jjQg/fpNBE76SDvoCr5PKvgXdM53JD/otKuSbnd6JZn3nQAHmHTYtf0Iu01zNtllmmT+Lm4SCiPd27Tlo0077hdunjf6cmmz0+2QjknvId0PAiyvUhNSyU9J7yU9IL2P9BtIn0k6I72fNCJ9FumcVOR0SPps0qMgwGYrdZlU+D1KKvyukAq/F5EKv39FKvy+kVT4/WtS4fdNpMLv35AKvxfrILhHGH6zLm+aHr5EAGH5LQIIz5cKIEy/VQDh+jIBhO23CSB8Xy6AMP52AYTzKwBMV79DAOH8SgGE83cKIJxfJYBw/i4BhPOrBRDO3y2AcH6NAML5ewQQzq8FMH3+XgGE8+sEEM7fJ4Bwfr0Awvn7BRDObxBAOP+AAML5jQII5x8UQDj/EMC9wvmHBRDObxJAOP+IAML5RwUQzv9WAOH8ZgGE878TQDi/RQDh/GMCCOe3AtwnnH9cAOH8NgGE808IIJx/UgDh/O8FEM5vF0A4/5QAwvkdAgjnnxZAOP8MwDOF888KIJzfKYBw/jkBhPO7BBDOPy+AcH63AML5FwQQzu8RQDj/ogDC+b0A9wvnXxJAOL9PAOH8ywII5/cLIJx/RQDh/AEBhPOvCiCcPyiAcP41AYTzhwCeJZx/XQDh/GEBhPNvCCCcPyKAcP4PAgjnjwognH9TAOH8MQGE828JIJw/DvCAcP5tAYTzJwQQzr8jgHD+pADC+XcFEM6fEkA4/54Awvn3BRDOfyCAcP5DAGOi/kgA4fxpAYTzHwsgnD8jgHD+jwII588KIJz/RADh/KcCCOc/E0A4f04fjwvhWs3ZrtV9Ssculic+ZWNwcCBOjvZ2Z9N9ccvmU/71SuPpttJ6+8o8jFRO24CU8nLcE+5JfiIeGf7XcDAfGNplldscDcOp8ryYJrq3NxsL0fpozLm3LN5kcfhCYhBKr8ylU/h50d5gOL0cAXp7o4t7nOD38PvwJIfhfDAaA+VDxhKJk4FHecQJPyTSBLw0D/dNaNIWLR+Ntjl77gi8Ym4MbLPuNll5J/7vNrmDxzQbMLZVtbo9E54TWiZ3wnRGeTebCTir9I4IQr1AeVPxMOfigOeORtFoG29LqzyJu+g5rQoRnnikdvUSvCfR7nS2r/bU8sjMxku1WjFQdw/3eSJdB7U6mIDkUFGTIsGctRhcPjxSpm1ZXUc+e6dxvTphMXvTw/GwLP1rDCYg6M/NsymnEyrTzbVIqgCc3DWyNZRuSl+u1akDGem6KcJaq9Ph/vSFozIttAk2I+NlfebIKMnLtLqewPDF0YQTjLS8NRrOGZi6YQFbDUWOoG/ckZZwYNVf59RN4pw2mKsKyqe8wqXwipoovQu2PprElZhdwVRGF0N6l+P0QM66tC9SeclsWcICNwfkYD6y4/RyA+7Ru4OLNKwFbIrU0ON45Zj4tG38hp29gbj54SyCQic501CtIkP2IoFbR+GMMGnYHTC/6jWezo1N7NSE0raZdS53xvQ+YlvRhYvjKwd7EfuJXhomFzQRu4le3ubYd+kbDqeyMN+k9VnLZpMOQEKPV3YZTCKdV2m9ujsYj7eJkq1TEKmJPrGHIs5o7FJp+ihcXqf1Gjmgv/P0yXkScOVUOnOntoI65fDhMJHv6fH0ogTnDUl3Wo7H3trdjcI5lkWt6jP7ozgil9S7bp8c/G3rr9f6+iHHpaNwWDed+HtP31CxiFTOJ+0wnbT0grS8VFos4QVpsZgWpFXYpS9Z4SxdLYtlN1J4LEhgxeEzElj9P5DAieOjXRvawdVN/xntyWqmD8rLbxPNHEZqyCHY2k93Ys7txXQcCApE/hLGLIK0UpR2msgAtiSGc6NoczCGFUZm39Y9z9JZVoWSE6fyVrB79nSIlC+bRclCkrILADkBktHnJVeMdmBFbhkzOZ2F9czlIFZxdzSL5olcpC06lM0vbcjkKW95Z7q/P2AIJbubpOGBbWVXEINmDDKBRgto/2rmg+GRs8dLV9ue5UqiHOxSM2IgyEsjr5i57HpOWzACR+7uqYTVQWYG3RjMmCQn6Wy3bJDFaJXUlEwznF+eQu7Gg3D2kf6LiPbwTzKqq+2CbMvcpiATLRMfqUe0Dq7sb0/Hjn1kMrTLbm3hmEkkDDxCJ7JRBPQ9XEc0bDZMXcwWrTQ7vuehCXA4AIfDyTEfWW2EE9nekJBra5rlrA+jcJ053xCXgnFcmZgAicYNGO3utibjKx2kfjQYG+pcxep5bX//cC6jM7uP5est8iXjrJdXjFg5nXAXmksoJzY1LmQhBOxEtD49PKgh/nhd6EFc5+1aaJBq7bGLjcBqj1lutgE6i3j/NxRBOH9sogCtFAlJY+BCAmCopbe6OxqH5+24IlMIC9wtN8bqAM+JOJawbDMvbq4inH1MmfPFCuMRXsfsikxodxocbkv8axsyQagXY9NYSgfTCcvStrR8ONkdy/Wc3LJkWa6Mol5cFKLiatV2uxzXbwwiFpadstxOjLVc9cHh9ngU7cFMGpbudqfdcLBfT7snjXjHG8nVcEpllbYYtehAMJdhp7omrFq7wWV6ivY4YlFRPKeFLixq0bX5bt7zf8SZhT8YB5kZiatY1vZBB+bR+HA3Sk/wR4wPZ0w9yzk3w/AdisOXT525AknizC1FB7NwMIRiOdqbXkbWuKGlEAkOZe1BvtIVL8+YvdpkV3xp096m0sNDuyyp7LXxyKZSUAmPRjvxNXEcfZbwhLnK1mUCRiaE5hkcAWkJXJJnZUrFTuzYsfZd5XJ5q2+OJPpYI2xLkuGcheI6+8VoGHptyHyMdkcYYDSXWpbnh9lkWsiQfbvtLHlXGKiV5M5RcQcRX1hogZMST3LxtUWOqDnjiCnzLpsQFxwipufGvtkzoZll14ESzs9FrIZshegzJpHe0EoyarnW4w7AXsXJdYh7GKKvYmDHkNQk9FSr9ONnS1eTF1E0tifRMs/bTtCGy8cRZYoqxwrVHHDgMDI0VKrQLG4S+TTBXcWNjHt3pYMtE271JO0TSTYEOXc1Yy4+8z6nGDkEwpnpFNMDRfwKDgIVdDZM2JcQXRu2/fa9/c37QHi2ZsCxh+UdcXaKDnd3ifqz7EfimJuusbJ28LPmshvM1TepXHR0UWyFcZeZfrIcMEWz/5CVQK51OBeXQbw6yjFTzAZbs2wc5JehWJ/Odli38j4F23MpAr3CplPcjqbjw3notl4M1U52UJ/S6oTr8eaGa1J5tfV+0/fdbUqxvlW8EADounEk5ckC5ngu47gf242XrzzscLJyc5PD/YA1zzxECmfLrXPOg5HFBrIK8DMuHmLZZi6HF0O/mMaVAzF4s4l6QK1uYM2Zf3OqoBGdsIq3jlwbuwTBZSwB8jbvbFcUNmbBI7L+AtYJdyMQsCudl4sCq4vywIeEW4VO67xgPPdiNeevr9uXOnlisK2OQAX3NGMJK4TFN/wy+5Rty1rZeAN2m1O8tQkBc8QgZc7pfSQYVyViLuJlT96TabJF7u4Ls4eeIyoQRmVlbhjCQ36lv1X1WYrVWr3Sb633bTHXGFym2kfDjJBlesGVSEWvONtJeoH3ixCLk4tIkdM+9jeT9UZc/c86sanOWZNfx6em7uFsRA/1cBQdjAdXjBqviW9jskZr6X97fMgB1bV2YDJIkmr4PZwOqXDJDrRtyjrheMCxYc9WyB8YpK2wT3yAtQTIOjJTDYiTXgnHIacMlDDfOBzPR9J6OFsfhePhpp0KJmiHpYDsUQadvRTkJpABis/XGEjYIqMf7jmEWFoSz5nTnLWeQPnYgBYS07qUcPMnwwPxoxlz6EDZs2gTz+cgnult7gFts3/PCkoqA7Ckx22pRdcz5HbhUQ0SSytiDoCknMvGWqXCPS6X01g4o7jE/WOUfY8Qv+awVRsj2zmaiUAKl3/CzqZLLqFmzrE0qCzN+PVSa8saClZP0clBO0+mMT0K3XY8HQ/Pm9nFbUb11xO19jK01RFRm9mVGsEiqkTTQ2yaEdZQhGXz5WOeDLtsOJ5yvBN9YfLp3SXUZWKr0d5u2tSYMqecciC71DOnxPzWaHgxZNUxevTC48Bh6tKkPxxxIJQB5OcjtG4+2D+oRdMH7ic8D2sM7AxC4cyghDgcFiXqktvBX4kzeSlAyMbo5Cq+/LoCIamtKhePpVaxI+LT5omCWZLYhkuOuFhvV+UqQ14DsJJ9IG1e+Lr39l7AjDBVAb4Dy5I90KlsqYcRINULBHYoOjIZ9SpPmR8gcA6csJi8v4ytqjk92SjOMw/2BlGolpRnAIu8/wA7Fl9Lv1DlMllL8Ky5dP+EMp6PRT0wsXIvSGpRzx5FbesJy6GARft2jdeIS34gPYb2fd441Q3T9xd7/D+DdAqjXuLp73fW45etBWZ9Lau7HWjbC0dRMN2dOyMRSBGNvkMTpppOegdDJsx15KfBrY/G45jmB8nbvTXG/AhCBOoyPqLI3D+YbGWh+78c23/gn9CM8hrG/y80Vw2ZonQn+Zzm7uHYbvB+b/pC3NzgEHVnYmehMSXGvgmnP2DlHjWm08l4RDxvfCVu4dPY7j2OlBJgtGNCOo8Q5XHozNBMwY/GBWIXUvSPxWjnMSQFb00KjLOfFvx4XCBOQ4p+W4zO9Af/xXaD8l/QkUEOQQoJ9yrqo25aBWcJ45LfzJRIhwX3sQzOdkqwv5XBSo8E9/GMc9keYAEi7sb0r+hr9rCUkNLLDxilQGk2wBygE39Ct+MsDhZzNL+yKVtbazZEEdRfe/pv4rk2m2c62e/R6kVwM9jFNfGvgJIK2SPoN2YLNuFvVeSbLDqxkhlde68miBYZ+kVFfbU+jM+ZcM828mZiw9jc3mMUfy4+yiImWdyfivNmmn9P/DDbi/Nmaf4+Eivfw6D+IKYLk315DVfXRrDLi5X+OeUiQq2EuxHTq1/BPp5BI8pIfdjT3+G5AcqA36LVN6RZawRkKiS2EiR4Oab+a2yJHFo5kdkCM4DvWmy6iLNwcSLxvwh11K/kGMcVQ3EWlg63mSxxO346Of0GcoTmkk7/o15Acap+v9b/ZEyscV7frNU0ztguHsQV6rK1qYL6FROPd47yTTFsiWsY38HF2eBgT+wv2/equvkYyhKeS7Dx85xVdctxnCU9P2cZFbndyb5B/1L1xGugbYVuUrKJ0kvoTz1NPekqpCXuCb7MZqJuVk+OYVu0KdlMrPFW9UWLGEu2xd4dB1PpWJqzxV8nEmqyzXC38WUxbIu+3rAzk67V0+KMLXvEaUbXYbnbVv/JSN7ErSYcB/f3p5O6nDEPOcAz3f9moRTv4dH54QCfOKV4MQsoIamMWHWhjIPtK0v1zVkqu6eJvLIkL8mSYFDkpgf0t2TRAV4IS+rhcDal6KXZouahfVhlH3UdqG+9RqHTATXjkunqUmKQxpNQc/Vt2eKyPLo64hIrg0u2rEfVt2t2WyxQzHzMzbyhTNb9R6AYMB4b+b5dfYBr0Al24GIb7x95GkZa/XaMriMf8r+Dw/xonamXQ+Z/ZOczvWONOdfms4so4z682lN/5sks9XDc6uY4G/djmbvt+fQiZ51ha9LqruO+IalIfaP+zQRPpDZb8DGdXCuoV+W4ZxbTILxek1OfTBVHUBE2Vr/UNF0aDUdpo99ncF17PyKo56rXM9CoOhh2uvUuZQz1zZnT9ZIDrc4+h+jbJWN5li1k0V+V3o+uONAWPJeaSVRtNcnYwq+OsCocKdYktaivIUSRXJ5yweUytvD5Q9QNs8XsTriuOZXJWoLiPp4sfTsrqUVVBKxFLRvPoOz6BYQlWhecca1e6alfymzQLTsWhnXDVUhbdQNLkT2mcv2Z5i1JNTLug7vDXFW3Z/OWpGlRxnipJ6rHZbKW4EGLQffVk9Xjk4wt7Ni8+ZnQU9QT0pwtDnbxKVJX46lp1pY/bCtYlFB8SRZhab42NE5NhBOiv9zBtqSfCqbsIir3HENZwl1pdyOc7odzHOjPan1vFmFpLtqWY6RQ3beIsnR7ciXE6kQtpwf1cBdjmEodEX+3zhJ0RNDHKF6TUpSm8/l0/xpcvuc4zbUYvTYlSktGshEeoOwsUHTue4/TdKfs+JSmJK/Tsrnj5bImI0w7o0b8ZqV9nxz7itvH4mov8ban4lswvqrxI8D9sMPZ3iboNzm0DDFB/ohDmjEl2B91WCYXBx1FlyXzFoekKau0DPvHHM42laDf6tDSVIL8cYc0TSXYtzlsYObXorGaWaH8hLfHxmQ3/kQmc/V4dee18FY12pH8zESMjCopLLfL2MIXmryMC7tOHy5l85ZkbFDtwVB2CEj2s3lLQoOgyswEpscsUrWuHjXIc4f2ZztVdcXkbWmFCLLJVpNuO4Y08Nu2CBNtfJa04BO2gGABXts59Ts2ax0P8p+0+TabGLt7MHqR1Dqn/nwBbdqvEd6I6NJf2KJsx21RRf0nV7Q3Gg9d1Y3ZVN6af96WuG6ZKQT7lwtYqwSg/8qiDRvDPwjHuwjnry0+3qapourqOzkdgezgdM6i8GGZ+keZ9O+yaPM7oqb6VZtzfXYzRUsf9PZHEwYdqn/MqV+TrTnOfGihhukFOsJZYq7a6ve44wom6PbGYJ+1NJjJAvt9DwVylzlyvjW++HfIgrT3KoEEKpOCV6YFJdq5mNo5TN936pSV8QA+qNX3Z3BdanFJ9IYMqpLeF/2ADgfJrzMeUm/MULVxAcLZURiYmCyd/jnOCiY+RqGh76h3ZVDyc6g19fNpXwlbyeXQR7R6t2axxHcrXYpUV/1ipqkugafpoczye7OUjQEZ/jM26Zc0mbgkM4L3SUSFoK7Js8syteOBXBm8P9NAYN4uBSjZvGjeO4mR+a20q7WUdaT+xdN/mhaZqUBCJnamXp5T/03bOK1xoP9G64+6vATn8HFsMPdvtf6jWDZymoeH+get/i7F+ZywwfznFFNnpOYgrv5FEyNN8KY2Wy/78H9JsdS3uH9IcWW0jskyXY3UP2r9P9IycbSSAOg/a/U/NcfoY99/OKn+f4vtMfNu2a+q/4qEzbHhGpf1P6np7GMWb7LMECnDVp/wJqjzsScEb9MIagc8txg7l+psV4cS8/4LT32LN8bnRAWPRuFlQ/v6nHqdZzrnXEkcVK3eELvAZYbOgouSfeUH8CiH4bSNMmyzaNRrPfWTsk73Dwy71+XUv/cum6ioPFXgtIwPHao3euq7M+iy/d3wMgdoi6zYoXKxPp+F8c+K3+Cp73Hl5cEOx5MiDCNkrl7m0a4tqU0ODufJzcanPfWDrkB2ZuL4rJ0fcpjq9AjDYzTh9Z76txiQLYMPMNeXRMAM798hC9Fpxuu6wVWZJTPVIfm8Y9cI54OhjPkzHh2yOP9IhKX+0NPf5jBtnAE2hCuNcHJobfTnPP3tnpnQzvRybEgj9XZPvdOiMUGH+5OFkp+zJVSw6hOpn/HUuyzSkm/J5mLQP0/MjmXHKc+fHO6vi4py7Pm8p/67XeoUVOh2XPBXnvpmIiLYWObjhAHs5vi8gfn18ASlY9Sn05wtLsn0W5vpT6QfYk3OXIW0xOXQBP5ibWrZ28frrsZacj9ibdZYYTPzoIbFcusixpLV90eMpz4igeQ2EpezxY25LEDszyXsDAR3ZPOWpLWNliz83v6p6inHcZb0IWYfRcn6KfgvX3w11pJf4Mw5JGBrfqBOe+oZ6unHUJbwBVYIAWddcBGhLv0ViyhLxzIiKGImIZIN8jnqGYsYS7bNwsTmS5AyUp/W+iszeUuxY59KiQ4Qr1V3pVlbPtwVO9PgIEXUwcwhUxVdhbTELFfT9nSdOdBKzrdx1hIc2bGUkLrVi7g+1JcleoW9+YzWr9BIzuimaAFlr9KR2SDTH/s9rH4YoyZOd7A/nc73EA2T+iZHxxE74rZpW71F2xa7IpyIy2kBYPhTjpCJYp52TBwfmaqvI5a7k+LoPUx+lrufR4mFivszCyeVkRg9eWzxTsclsTif14RgB+4q9K+0+tXYbNtooKDrZgY2ndEu4ElMqEuAhqzZHz6p1a+ZWN/42MONj2r1obhA9sE5jGMCevnrcVkq3ZpIkZEIwce0+vDVFMX0ecQntPoNQ4BymIuuR9TvGlkM2DJn3BWIHN11hrj2RfZGMwGyRXzaeoJleNIkcpP5OKf+OGUgtw3C4TEYfEZfCq8Qubl4Ecm+MscR8WiKY+OLCW3vzQjtIe8/09JTMfrEB/ZK4e50hgNEYEgG+Ij+f1xUus6uRphc6/9Xz5luCfSI5NXfeOr/Y0Lo6F6LmDXrlI6ykU6xi0S9gOnIt7IpRvPUI325F+5vh0PD4LU5IkLEsPYa4XBkX7B+Okc0CKVgnmWW6Z7TpDd66nu9aLR/MObgEL90ag8m4ViG+0ZvsMNITAim2m3UZXn8Uw7jLpGeDhZH/XNO/VSGqD7YJoa7pt7hHQkJGNP8X+cw8jGmjNU53Gdk4tUdcD5UP5uUyWGpdCVgo6LkLZ56b1IiOAoj9Tc5/e4sFrf43Vr9QoLqhJxV0WWjjJ/NqfckJdIVc0MRqb/NqV9M8F1medLEVNDxzyTYYGd6AOXf5/SfsNUQz76CijzKwRGfRIzidHc3QISHkXT1dXn1lx7+ymQ4iHVd0O/y1K87dLzzCvq9HsH7/RGhaCG0XNS/5NRvsL1n7uyYgI94TCH+Ar78yz31H+gInj7b867cQLw0r37Xs4rCdBqdqg1Z7epT3o4YgY4NNKbW6OV5dvmZxdoDz5r6I2843SHmSWgzy/tlefXH8CYijxSyl82Reik+sReNWX5F2B6F3b1wP6yPts+zGNfwFER+xfl8NtomYkAoMK/+3NuEOvW/vNyAHeCALEPU+wxxUJ/KL4mVh9toBp5rCFYaoN9qVV4dcb+r2sVeIDe+utvakG+lCL4fI72G/RRErtd0UN6RSbafYAvmK37rrc6WvYxeMvlSsXzeIZYNwryCWMFHwSMyfpR1w7wlBMRBecTuz3FMY1LETKSI7M81BjNzcWcLUVZGlgcXZKpYbGEUtWw1m1+y7VacXV7wMT0cXZYbRxy59cV2GWsG6GWegYieeZppnY2YhB/ytF4s9Cm5AqtLZtbSRymbMn2of8XpasrjR+FxrNSnCCY58eftvSz9OcrQyMpPVpSleLOncpsLGHVnoxYENfMDZFVudeQzWJ1ipdYLyGv5NNxGRz6IKN/nsFReiqw1K755pJYLzHum/lb8WZh80GVKM7UKFtEuVuSLMPE7Qfl2YAZrX70sLyLjFy8ri+jkSczqZi2oleqiXCfkMZX5ah2ZtS1u4+VHwSeTj9WcSj6HJ02ZTvSPj/n0Io1p/SqiMymR7ce1eZ29iuza7K4rtToVENJgIsLrHdLVTPA3OLxpMcHe6LC2gQR9k/kASrPblx/F+51uzbz7uNmKstzqyRuizCzd0qg1+7Hcbm0UH0oyt0lJIsjbpSjJ3RGrlGwSyQ6SKu9bM8qbJfEpR4MTHQXLqmJDSdRYqEE9orwykN0FqJjh/ZPwXijzKRCmLLY5m/+++oec8HMrrCtcORVhbzkDZbeLlOU7YPmYdD5Ewn40pFfpo6qrWIurAHmG7TuvYutofAhSlhFIrJdXNDtX2zUAWYbVu2F1VblPYcrmwBVIzyxpjcOk2Zfl6Y55Oavib2I6ZtltMm3sfUljmXKfwrQxQar3e3FLMR3mejIwO7ueS8PvgYJTGaa1yYyZec3NCTlxTmOP/YCn8kfTOTEgMh/0VGH/MBrtmNyHPLVkWXcTck/PBa6Hk4sESTF9lmAz5uDhHc7xd7DPaWkjYYkdn7IRV6RzEZ2ad+HWiCBF1TI38dz2K68wob/WXsJqGO5SD5180XR/exSuu19uNe1QczvZ6s2k4kcYXvbZYKF8bTqVT+2ZytozLe+KO7UKJrcfmC+i9ukGs1lrVv1OrduXt6X9QL6VYQtyCy2kTwoYezwEtzA+zsQsEFdk1Ct2cid2XAQJUKjBeDOukWM7TK9f11SeG/60ek3qFsy0f4LZy458+WAmr1Fwhg2viBtMtbLQvMGztcnB2sLYBPHTbeY12r7KtTmUaKFyV9qUF+jmiwNGhCQ6fv+NuLB+zbLfl0fZIBZrt4/1DT1hGUwuuuya1iPnqMsvFBz2U572ahn0IhN4zKVPv+8pOcEgqi9A3BVKZqPVaLeadnNV9BcXSj42Kf3V1jvx5djDvmo/7eS+EaXM43hSLcPu+xXUwr7A9IpdbH7Vr6AhkMg3sYK+/SazFLOB99gRpKVeFu8eLC4GzVTOfdhLdTu9ZrnY9QG1+Zapezno2WqpIVh4hGvhTU51aI5BudhX06pabsvkZDoIliSRMCua5WK5a38hoQJfXJGumdZ0fivsdE4cOYPsB36dfdiUOqcUqEBXRVLO2cs2xtUFTvt0JidAVNvDqTQAXZ+jkThygG6I2XrSSeWtHjiUG022zggKM4zPsn5GO4Zn3nKP1J96uhCZpkNumgVHKSuna98EsAaWuf3cBbmCyWET4cZpus9WwpRotSq74GL8Vp3tXmj7QblTMx/1UOW2TJp237rwyoH4Arlzxc1iQpOXkyZp4VxgZLxkHL0HBbXcvtCtGuTKhnjnq4FBnwi2asaXWzvfkoejQCc7vUAwp0pF89WW05wU5KttZiGeqYnDTNzGzwQbMW72DWlcWEFr4kIsPYmxjkWiIfI1ucd8+sZkHTgkcrLmTVat18V61Dm1C2Pl5ceAaB7ctg/HGCYzKX+LGRxxNMOTEOnHb6Lk/W7YPOSIPyOXL6UVVN44XWalqF4zzejEM2av7dftx1Vytg8T65x7q2NAw+YfMAzXaJcdSl4hJ0fIwZgTivpHT60OF1H/hDItokSMWId/Zs8ZTi9POOziIckJCrNcUAUUL0IA4WTnSopdEpkg29m8ZUNjBbUsb1Nnkel0a7dOOYq2UrHnosXR6MUOSJ+0lJoBqoLRAGSgnIximehEajHGM07Jg72WsSq5ql+kGCgfXEsaKv6OoqqbD6/ojvl+kXeczLPFyhbrxWInLcxyw37+EBLlP5TA6e+shDKOlnmFkexxmtmi8os5a9mCSL0spxd/IRAxsXh68mP9fYid5UPAhYSzb7h4y6O0hS5oLuhQjQS1cBOHriYFmYu4HHtMN42S4VNdFSQrELxEA6SCuD0EG6m3tC+n/ipxWFDkl5O+bTpvvGt8N+aagb+LHbk8nRAggclgXDS9kO1y4CCEwOnYEZijaMKvaEiUd3vaDfF/WI+IM8V1IeXG1Esx2VEu3JfmUxrpvR1QZpSBuaM5du8ov22SOznKDZuO/DIoxthb1BUJPXBqNzEYlD5xd7bV6tUx2RNpg2zqXN1lLm3XbH/XuTKTcrWqT7J+ZgNL4Fbctjo1NzKOJW5EcnoRtyk2Tf1pTp0xE+aE+TpPnYWda75D63Mb94l7zO0JdnHSm41rk2Z4mZMIqOsXWauX5NQNiyizupm9G01jwaXRQXcqIka+NyWo0pXivnG0V9XNiNDOOeHVnL4lyaY68tKcvvVYV60UMn297RhBLVb1ozBx1yRIenuiVAH9ltuPtrlYJSzidl/Clpn3x+nvWnAz3CqpcLm5E2KkzvsX4t9IYM3PN3EiOCM3CW3U68YG6YdKrYf6+GXAXju4jyTH9tctV+V8TS5/Pl17Jrwjm3KkChq1NljX1itYDlU6bV/0ed6h+XWIeanLhHsNRkcfrcWjqezXklvtC/1KT2xT7HdZYrEdUlnv23w4lMvj2hC+XoIqXUmQuV1CjeeNO5qPbEOvznHoikktYQ1ZnhHT4LAxA4tf9tkUbdzbO+XGEM12egby5qM5KkVL8/jTJ7Ygf1muHtGVwp65mwRaCoVRF4lQvpzQ1/axmNVBJD9pW9llvaFNWZy4WkdouVy0nOCK7OIINZN9ifwags9M/EnTwqa1vEYAp9AYdwnt5Q7NqMDKqREtClyQT1CcACBMxw4qV2feWOPJrbi3cmjGpuNBixsSdy232JX8NcdXuMb4lhYpt5zcjgsoluLKJt2RCxQcnJ3B5GgQyR1F6B6OsWUccEc1dt1m8XgmXwlloZmIqa20YbUw35AvdrPN7djI59OVtuWGaX26MzDj2VZeBh2w6bFK7Qcvhsc5Wk5V8zSgg0Gk+jIH4THX6UpLLIHT9YFZv3ANjtkE83ABLu5CLTGZXpeJZ2nhNB+xoCSubX5LDuTa1XvTeXQwnbusF3HqcnBsA5LKdjYLU5tzVF+IAfNsDVAtNlHTiSvLu2olDPYBh8h5jQislk0fkwb1MBC/gOW/zbYc7BBkltMQzbnWI/XmHJ5rYgkTrwWTkEbQVccnMGCC8LorbyLxHtvU3iYmUeayhIOAtzxl9zONvYVo2CS8nGS8q/pYkT7mgOLRgGEso6hqKWuTZnj52BAY1DDp3FtznFriA+5cNhG5ihOuy7UUTWzGda4QSc60oo83G3cvWOBD76KYTwadNz8cUz+DGRMjUDbaxuKOFpXSqbGbJPMquolqubzx0oO4BqKLYpja2PIhbs0XrC/5IK7TMUPcZs2DFaqWeRw0IJhC9GnX1SmYYZTD8ZjYYE0wSwmG853BLC/OadsMVeXkA4s1dgKjCUWCwBbkONxo1Lo24y1Wxeiby3kkc2C4IDB5Z3WROZV3rRhu9/tDMrlAJoeIn/wSB7sSmY7FEtfjQTSPlc5yV29Dqa5GB7Dhou2dOQSUYZ9H7VnMCf/c9qIexkuhxvFIPo/jRYY+Wfy5eGj2R3VM19VNS4+u0dEg6ZFj6jpBeBX/faGTxiYRa0xtHldGMbd1kaVlyTpYolIir0i9K6eXKSMSYn9GTCgIRcC0I3DMMBa2a/PeprjpacBEfGdxRcNhmcM+GkCVKvfw8+1wMGdKWf++RIRMcEeVCOcnOd1jm6JR6ZB3Z0TL9BlxYlwTpvTUcx4SAUuJILyAJS67iXV8C7JFmK3kDazmffrJdXVOpYuBu/SV6TYNHTFOtaxXhyHbV9i0PE9gCzAPxrJzAZbTa1bEsTWP1Jty8hWrRdvLNVdOn6KpGb1dU6fNnMU0VWsIWAlnFvDta9hfqj8i7rAjidlXRLKY1OsOyKVKE6n35PT1O5lZei9u8NHCfLwPD5hlvzUjgoPsbpJv0q3jjAbMNkqk1c0ZkxSbNm4n8IDnTLAzRW/PqVslGyRSfEdO3ZZMStEcvQIm6vZd7oWj1qQLsaur1R17yfy/P6fuDJAwYZDBwd6Dh6EJxkfOBRY7gwBwfQ9YpiwaQbguJSPy9PaYCTRhFbecUBDbGHuz7R5HPaMT1reR3rng+8ooag+YKVEkPQffCfetUbMxdKYETwy8yebmQDKpyypPQyVxOgvs/hJ/XybwwHx2UBjkOQzAdqFmLPsHpvJyBKonH6rBCWykAXyWYNoFKsjMQUTjUgEI1f7CnNnTgvn0ANcOFsmuPGtO9/Ej7fi9heUzisoyxcR/pAYHWlfDdmiRdpJy+RgmhqUAaWk2HQx36BRXIwvUO4ty/zA15vR1pj6CwTyI21Ef5zx/ECt8O4u2tyXqo6zWBoyRhfKeIFRiELJNeei9AczFsdMK9RpP55GlMxuR+kBOF4x+qJdovSRQaRCxxKwVfrxcJQzGbrEvD3Z2aEDl1Uok0aQgCeSuxvmudOR56kScL7MH0nWDfr5aM7/Tp1MFddKATh85DpvsenJSOW0bbg+ujBEkiDPRwiqQ+6oP5vTZzNAShf9QTl23C6dNewZgGNcb7jXUiGWDlb3SOpxHo2HoT3bGGCpO62LamekbDGEboWKIH1E3ogdEGDADY3aEcW8ynAZzxKo+mdM3G1QnzKBu2Y5nPVKf4Ow7C3fsig/CbzgM0ScXW1xWt5l2SjOUbC8wZ7J1OmyHfrsp8zlMExYVub3CU3ccTAnZXZnsFI3aEOhUdyY/d+XCJzQeq3yc7HG4Z/Mr8o6pZq9x6nSJETyhMtrdLe8dyil0LSM1LLq2zsFS8nGNJsUoChuG8X+MKPIWdvNdsLlaZGwxE0ULSzvCPSqaXw4h0+4e0hMUTSxvExQR8aML1RHWe7azd4Um9MrB1bjVaxHH4ztxcG38mowvVheuIxlCPEJYWhMoKs4YnRy4zWH7l2xJ2hOy/LZAbdNCc5FD4eBa2KVO/ADMzJTy3F9hqPRJzB+lUfFfLtMJaUWU1OOsDly15z89iwsNnz/EKmTjMgapVuSmyy82YabW661il1QHXfl7CEBesV4zf9fR3oUAyPdlOn7g/sZboWFucpayN4rLcSOd0D7nShtb+sKNJW1YroUs16WYa3FiA/bsIo9xwbemvF1mzOVwQgnTDnCmcPGNs2LxL1CF8NGDGaYH3beov8D87btrOfVX4q+4l1kW806i135SJYnFqevkTUlyq+T+UJbNyl/Jkb+BYv+SjA3pm5su91f7KjWZSaC8/2CvWBdJF5otbt0kR2aJezb5M4BGZMtJps+1VEyystGRP+jZMQXkV7P5LOEJ+/H6NSPik7RCcsoKv7YuvTlNrab9S0ln6G+/wT1/v95qnTcXh2fToaNnYZJJ5PA5/OQUXZxdPJS4j4njJXrXiKVrwlvMlL1jgSbVTWjwHAw+Up8nDhwXiB7h45sSiWDqIQijWJ+hOu0uattn2fviqgG3iSwyao/E7uiJtTjs9QuX0Am9MNmUdohJJ08Z/u5YXyyBT6m4T/vwR1NhfpShWRiZeZcoEyE37YTifJlvc8VsAoX2yoez1+LzHs88oknfy+Q2zOrICxe5tBeagvlwksmSWwrMnzR1uWXTgMusMOEt8+koc+OH9Z8PHm0Tnt6Vxy7cnfrytTCFqnTsX+HUo5Y04NkrRS7wscP4k26C2GS13PnJ61JVjy9Tih0uievSiJa/H2eXgtcsbpLkiu7Da/mqfA67UL2Hf5eq9/LvcvU+/l2pyiewV6v38++JqhxLZLRryU3OyfUWlzsCnWLdsb4CwNNCc6Yq2LOYJ5LrFi6Crje3+Tf05N8bG36zR3pTXf4mwM0Vwd1S6fLvrRUZ8W3rtY2e4XE7ULnYdgO4o2Evoe5k0ZI8Tl5VPN5v8O8TRKjGhD0xaDAtAE+SXj2ZCyDh80UP8s9TKutS+4uLpZJ086nuHvVLOtLyl3ZkAF/m3mo8Tf5AFOmXy5+eJX06q5HkKwL7B2efcd7+NQhMDcldgRHQ3TKYewRxrwzuPvenD55ZMn/54P5SRWbmWUHb2IgHTBeevWWS57Rr5a4d8FcFrV7HfK/nubWGjOerOSjKCJ9XL5bMnw78mvivqD6/1Ot2jVyK9oIcqCT9dxdxqHc3nrwKsJWhL7pYxEABr7d6Xctrg/A3VsvMZLUBjXRL/lJgvWK/c3iu7m/YhwjnxY525PmyekGsbk0bUr+v2LZxbdvU40tF+aucQGWiGe26z7TTtMi84lZbrbkuDHw3yHU3wRtoqnyOz/KpclK2UC3wix3zh0LOZd8OnErV/QnsYL1GM9HVLyL0bkIspv5TKjV50dcyfXhqJf1I35fEgnq61MQeA36FnYBnOHHeJSnaJP28G2dAenEPNlxafSYan/3247M65s+OPkASM342sPA2vXpOV95vADyvy3ZcMrpVTKZTl6t++Tw3FcCefEKu7BuNznE7LxqVp9M915NCDGfqLMU4MWAi3uVk9lfiebZtrsYUJ4Jyh0sSi10z35cS6HTQrjWTfp2h1yTXkaDERhmvF22yrd7Q7fi+tAp8I/Ndaln8TTIC0ptFfhZ1i3SQ9FZJbZu3mZ7EwrqdJoQc8A5hS3qnpI7V40Rq7OCApSI3O0J3vt6S2ao3ip0He6ZGwz6GAULPGmY8LUNdqRUtcTuBHrSKZbt30l4JAZ1dMGFPTC3Rk9yUPLnCynO4L/Yb7Sq2VVr80nXfRO6+DPtlF/bTWD5+x/xRni+vNQO6YWt9Zbza7hV9Nq81yNwfxPbsq7AxTI593fFcLA2h4jj71dQUcX+NjI/0+bF32hFNQ4vN3zoN4sw9ZLpx5l4yvThzH5nNOPNMMkZVJXM/mYckY/p4IbH8D8seYqfua9Md5utk/bqlTfbrZRqTP6D9CLuo/cPd/cax5/ueHkbDsvwGy3wdyXxqzAQ2rCcSssHL9v+SvF4o8sGz8Zsv+cq2vyt4jmEmfNmYcgYYETY4fkjLlcUFbbu3+txT2O9zqvT7nGR0hQCOeE+LxDnMYNH8WctrfNaTnFe+5m8HVM5ZSGUe/XbTPxenDSAYKQHhFTGvyS8AUle7sOBqZ9604TQdc7ZHEwcXiNYYwuJsNnCM1nRhoQVxkYyzJp94TY4GqB+zD6DjQ4JXM1OasyXxY4/8Vbzww+bC7pV5ccOkxVfkjw3K/OgjndXXMKtXlfsUMrXeIEYyTMfvVfCrHvsNSUwea8Jetly92ru6RqYDr6UD/wvwHAAAxZl7fNTFuf9nv5ssdxAFEipgUGvxwgYsrRSSDVITgxa1eGmrbIRKAngJHNhARUEEc5ENiihWUJQmCIiVakWKGxIVj7aIVhNEgxaKHOxvA1Sq/ZHjS3va8/7M95swntNz6V+H1+vLPJnPzDPPbZ55ZjYU8kzY9Lwv1bysT+/5lxbf/u3rFsyaO2n+1GtmXP6D78y4tKwwYU4z/Uyovzk9NNhkZISM8UxGKPOSWTdV3FZanjCRUNe7jDHdTE81/LPNKabRMyZkLHsz1GR4mVdNnV6aM/K/G3+ayD6h+Zro2YlnauKE8kTpnPKpt+ZcWX7r7TnfnVo+b+pcEzH/M5v7Qghw65tWhhAy9Mq8ZsbMuTlzSufOnlU+tzQHeubcuRWl03JmifP8GaXlOYkZpTmz58yaN3Ma3RVzS+dMmJZT+pOZcxNzc35ckci5aWp5+axEztSbbiqdO9cOnjltXk5Z6dRExZzSaM6EspypOeWzyv0pM8unWxaMYaGTbJlWzrgZicTsnFEjRuWUzpkzi0GSDDblpdOipv89xozLwXDDUGaxOdfawEwsnTaz4jZjzgv9g4p0lxgT/k808Z4iZP6xf6H/q3/h0MjQWf/B2PaP4cEfb4RGGpNRYxZvqzLmYCa74Z7s+DSvZkW/beFbsuOJDNx2sAv/jcg0kRGEcWVttM6rKX55a5jOgw48IjIVuKooa4JXs/7Gp8KVIA48NfJgyMdf8aqHVFaHWW+Ggz8YimDXyCYi3LMyhI3QcSy7qKVwIib0llbtXukiocii2ugodqR3T9WHS1zEi9w5r/nfTCjs3VN8924XCUcWZcdPNaEMr7IqPNpFMiILWwr7mFCmV1n2XomLZEYWliTuNaGIV1m8epWLRCKLRqQu0DqVw/5y3EW6BOt08aqqzhjqIl0ji4zJM6GuXlX7jqtcpJvmoE83r6osepeLdI8sSjSP1DpVrWOfcZEemsM6Ea+qOP6ei/QMZMvwqif/OuQivQJNPa+63509XKR3p92q31zRz0X6BOvArWrouS5yyklusfcudJG+J7m1HxnrIqcG3EC23PEVG5wWIN296rKepS7STwgRGCF8TtzhIv0DTXt41a3LV7rIAM0ZZ6VesW2zi2QFUnf1qotv2eoi2ZpjvVBt1u92kYGBF3p61ds3H3KRrwWa9vKqZ7901EVOl7fPlAQ1/V79SlwPCiTo7dXMXpvpIoMlwQZFfM2bz/R3kSFBxEe8mmGFQ13kjMAG3byaqgcucJGcQGokONTvKxE/NJCgj1cTO57nImdGFo5I3WklWHP+JS5y1kkJ2nde6SJnBxKwzqQ+N7jI14N1ung1W9pudJFzZJ087bma7s23uMg3gj3X1aspe2qOiwyTdZDgFK9m5x8Wusi54oatPa9myBs1LnJe4J8eXs2Ca5a7yPniRoSgT+uM1S5yQaAPc0a9sN5Fhgdz0HTFrmddJBpo2t2zeTIc8rtHaAKhGyaFJctdZKQQwj1CCtt9g4tcGCxPOlpf3NVFvhmYpi8p7PzxLjIqstCotOlBCnt9pot8S+tYkSuLZ77hIt8ORCa5Dcv71EUuCiQ4lRS2+2wXGa0g+JoMXdWefaWLfCcwNImqbPxUFxkjCdC0DynspmUuMjYINuYUP/eki+QFczK8qu0tv3WR/EDq07yqYXmHXCSmOWhKAnmzqJuLFAjBC31IYbk5LjIukIA0ERsRdZGLg3X6kcIOX+Qi42Udgq0/KeyFiS7y3ciiksRZ2orVZWtucpFLgq0IMuRnC1ykMEBIR60bH3CRIkk9ykq94uAmF7n0pNTFH21zkeJAamQzD7/sIhMC2dBn+4L3XOSyQB+Q2Zcfc5HLA4Qt0q93yEW+J4QICZPCru/pIhMlNZ4DebNugItcESBsnmFHc1zkykBq0lHVa193kasCTUlHh0LDXeT7ikSsg2yx1aNdZFIgG+us+fi7LnJ1sA5pov2lYhe5Johetvykyya6yLWSmqgi6Wwp+ZGLXBckHdbpPn6ai/wgWGcAKWzQTBf5YWThvObbrdQ7n5jlIj8KpO5PCjv2lQi5PvAc1llwoNJFbgis050UdqDWRSZLaiKe9Drq6kdcJB7kECRYcf4TLlISSJDl1Rybv9lFbowsTDQPtZoWV/zCRaYEmvb1VN9N6OieGqSjAd6S7u/nuciPAwNkeEu7//ROF7kpYNXfu6f40x4uMi0wQIZ3T/esBhcpDeZ0I+2VZLhIWee2qiy+fYqLTJdpRtk5wyY3usiMYA5Jp6qhp4vMDNaJkPbOznGRmwOjkSrLJn3PRW5RgPqpsvWJeS5yaxBsSnu7alzkNsnGFiFVbj/ynIuUB66G27Bjb7nIrIAbteOa/gddZHagTzZpr28XF/knhW6eNK2OHRziInMCTUmi7Q8Nc5G5ko2QUuW2sMBFEkKQmvqsrPc1LlIRWCeTtLfxZheZF4QhErSecbuLzA8koKpc8e4SF/lJoCnVXnFb0kVulwRsUriZU9e7yIKT3La//oyL3BFwQ5/ZH25zkTvFDX3gNuzW3S6yMODWxas+lLPXRRYFFkXTNcePuchdgaYk+EnrvnCRxVxjbCiSW6qWd3Whu4GMkgup6tDs01xoSSgQnFwV+zLLhZYyy9qBzb2mz9kudA+QdQWz2m/IdaFKIDuL7T1p9lgXqgoFCpN7tlw2zoWqgWxEkpq7V1/qQjUw7MjNZUOudqF7gawYVKs7by5xoWVANlwRY8gnM10oyVpWDJLjgt+Uu1Ats4LkUNOa+kogLe+YhYSjVi1yofuYZSVErxUXLHOh+5ll9QI6dsEDLrSiA6KcLR7+iAs9AEPrf8RY32+9C61klhVjoM2Rr3T0c+1dlEpfYUJfozZ8+iEXeghoROoyTeF+Kxk6oVVAdhb13PrsqAs93LEQBV3V0Wtc6KfMsmanpiy74hcu9AizbHwCFY9sc6HVHRAX1n5f9HGhNTC0oZtJrrwl5kKPdswijbZPvsGFHgOyEpLFyl4vd6G1HVFNUmw9vtiFHrdr2f1YVdx3sws90cEQMbYvUDLvhNYBWTHI2cN+1+pCP4OhtQaV1ZuRsAvVMcu6mPxX1aWvC9UzyyZAtnjsT99wofXMsmtR3rXP+LYLPcksG9Ukxy2zJrrQBiArBvmsrOs0F9oIZLdkFolzpI7JTmgTa+kw7hYK2eecjrcd492VaP5WuN+7Sw/9+vPwBWWj37l0wKIvj64L94lMyDCZ6S6mp6cHFi4spovpaniRcf7oFep9F29bfXiIsW8telXh/UQvJZW8iej1Q+8cetHQ24VeKfQeoZcHvTHoNUHvBnoh0FuAbv263+smrzu7bue6h+vGrbu1btG6L+tmrDuwbru61+oGq7uqbqW6f+qmqTulbo+6J+pGqLufbnm6z+nmpjuabmN6uEL4ZLm9T+nmpDuSbkO693DD0V1GtxbdT3QT0Z1DtwvdI3Rj0N1AtwDV+6rsVcOrWlddrgpctbaqatXPqpRVE6v6VZ2rila1q6pU1aOqPFVjqppU3agKUbWgqj7Vd6rkVLOpOlMdpopLtZVRvaTKSDWQqh3VNapgbK2iqkT1hyoN1RSqHlQnqCLg7Ncpr/NcJ7fOaJ3GOnd1wuos1amp81Enoc48nW46x3Ri6WzSIaTTRseKzg8dFDoRlPqV45XMlbWVnpWHlXCVWZVClSuVFJX98MLTDxFCDyhDKRUp59jkoiyidKG8oASgna4trb3LJtVu1LbT/tJG0o7R1tAeMHeFFodCd4fMEkKUt0reI3lTDJnqkKkJmXtD5snQ4kdXD/TeCJndoYy3Qua3IfN7xnnmp14oEiLK7+I5tpvp0fHi6T+2J80pk+x7e010TP9e/qP71/T3YG+IOcOcE2Kb3HHoo486PkFh/cfvBiHzDfPTkBlkeocG3k3X6bc/N2fG180FJupV8otB5PSrqb3io/KNObPAE1EbHSPi9IJOwkL1yZ0xh2Ar1yeXuQSQposwVZ4JVTR/K1bR/GTME8Ew49VGVwIHRMB9VKyTqGhui3kthWMtEW5IXwFkCloK59MRKQhXNN8fiyd6FWTHn7VtuCjrLUvUJw/F6pNdCsK10c9jbXUh5PUKKpqPxsLGdAV9l9W7FrTVPRdD366g4G11++gNiKKsp2NhERXNu+yXm/pAk1P8cZRvLd/RWFhqiqhPzmOZf4mFs+M/jJUkPow1pIvo2B1DRGm6g1G+6uaVkAlJWVbytW6r61FgDdJJgPgQrfKdMag9tCDcUvhrbDQU+R/Pb0h/Xerelp+bOq9AbXZ8pN9RlDXajqhozvOntNVdLA3hf3EBAg6yBCcC8jAiN3UJ2o4uUGt5iBBTjbCraIqWFQ/bfhGWK08wbU8MT/8z896IheOJV+C4h7kpOn4Xw/ZbYXCYbxMdR2RPme04I2pti3S3WCI7/j2s9rF4DI+1FH6ID4fDHfP5RCPrjsfIWxUD12Gfn/PHEr4NMa8hvYX5j8XCJYm9zHuQP9KxVHqxuH/JUpNh+CXAUL+jPnkAkx2Dx4p8NDvA8Ix86VCfjObBfTMdo3YUZd1rW0aMskRt9DMM+nEePObjg2X58cTF+ZzgMS+eGMgKZ4j7WQw9xrCLEXenuE9h/UdYrsa2KFNviXjieZR6TR2vMvQzOl5FwoFS91W8802+F+koVMQ9C/cfIO5jMJ8S80oSP2JuhZbrwZClDN2dn0o/rLl3EwSb6bwbCX/jdzSkD7Lk9vySxJ/F7E+EVBhXD2PZrgWY7EcM78W2rrUtU160REliD4zDGvFHPPRnPt/dROO//N0Aro1eyIyAaEgf0cYabQkkvRQZDPvvNpZlU2bHl9HRqyCVrrMtgm2yhHxZn7Qd21C3FyGXYtleBTBLMfcPMaJzGz3/D3QLHWkptYHYaWPxtba13EVoT7YUfqQpP4TYx3cpAr3h78nclL8n65Ob/046MkcI8VRaNicIWgqnW6Kt7nyGvZwHx4PETDlD1/F9no8Q43BzHug4/H+vpFLHVjrWYfu9EuIgXmlH5vMQJENGmGZNXZS12raM8JNYQ/p1pOqmzbwfrTJx1yd0fKENJSO2MT+TaW9L1e5s9a0Ip/a+GDlTxDztig+QMCCMWa/A+T3SrNc++T3rvIgF3qMDcxjzW/74ANGa4HRYWW0LyCeMWm1bOpZYoiH9Y0YeiiHaxYj2PmJFaV+TJIMw5/PMH8Tme1ySKGks8pHaaBHzR4AM0XKXoMFxwmY6U9gFbXWVuHQtu2CtbdmFP7eEdgGyaCe9zrov0/E2KxzWiFYYZjB/P8yHxMjZSuc9JGommWsHWfBLRszOx3lHCYfmvJZCpab0WGK8ASajdnS41xzD13J8SeL7TTYCYFTAqfNNVAsIAkIqycFHFD+FsPoM+Aes/leZdCaiZGD6exAc12XHH8J6Opi22BbXvWOJ3NQRrID72+o8/vic+fJYq5j2Zfh2+PTFuUm/o61uLLbqjtdP5BMgHjv1ZlQ7yiqNCsN3sE90h79tojtQbZUlWgor4fPaWKxxMyuk8nQs5aZG5yNHER3LSBR5jHgm34Z+J9FpAREm5GciRBGRHZ8Mi0uwwAjJdi1IGFbzEGWvrJyko56Yr7MtEdJgiXhiNxq8n8+UD1kokymHkfFC7YhjIDfC9BgjWUVES+FGVjpM26h4/x3EHtDdLHtQmaTBDtcqalklaYmSRAVMGVGUdS3z3+W7hI4mX/Tc1CZ4fJMvGTPPWG+vYQQ7u6K51BIthecj3Gt5ePIjcuYc9FhH+4W/s2ujMdYfh9GWKXy1xV+A6To63pPzNaUdSc/HxbhWTOVrraIWt7xiidzUAVpGGPMX9lI7povgc3jURnvj4xcwTm86WEWEltWIQA5NkWAHfEnFVKJrFbUq2dYg5jqZ+nlL6FiraLbe2QuRiYj7sQq212Er26tVDRN0PMmnnNMgU+9FmhZQ8fi9XP48w//IWmtsi7sWW6Kt7kZ/hOTVlIrm4XTCo6J5MAyfpGMwfFhFhJbVCCuHpkgwnweSiqlE1ypq/zdlo92l8cRIuASEkiTbdbQlCIHLNQvzJ/AaZWNRll82kltsS8duSyiE4glOKGPaETDECWXYg0cleQR/vAvDCB2UjSJgakgP74u7T9iyUUQ8sYvv1zD5QAL8iolHGfaYbVnvXktIIls2KpOobKxP/ldlo+ygg0RZk1wuAmUp1hEnIBBChbeyekAQI/mkxj2WQKk3gK4ihLbS8Vweqz6BCOmG2uhi25IuLrNEUdZQstSSPKb8iR08lCkvE01kYtm7NhrBzyspfy6PnXSAJO0klG+sDqqMShLXErrEsOqWlsJfsX0etC0d9Zaojf4SLXE/cjL3/7PmbmxJQdRWtxeZR8NjL9ynx2yyLspajqXId/XJ6yyBiAwnI5Yk9sFMKXItq5zQQTEe8cay/ng6k6ofxxNc21luLRq1quMD1PscPmeiM5tTvlAwxBPLbYtQGy2BpKxCdqeoZn4GBn8HQ/xVPFqx22d07kdajoqirI9OEvY2k5vqQQAFBP4xxOchxgREkIL3W8LyU5bWeWfTdn3ydTpSefXJbYywiX0DEkcpVH1TyCirsRCZtz75rCXwGeLulZWb6Qhjw30sSPY25hBWnswfhwAwigg/Se6DW5NCuJkR7zL/FTrIqw3pZxlxjI7VtmUVxcwxRk2BDyPa6grw5R4sHaUle9cnh0BsZP4QGLOKCO3+lsJcOtn9pFK0yYTPFDrfzw+rbJfoWkWtyfU3vzWcCMzl73lan+iERJjD1KYVzb1Q9ftNyHzEHmQN6Z0E1MQm2K8hKiY0tRRW01HYxNZowEytjej7rxDpxlT6VET7QyNxfh6qHW7kbRRJXlXHFYRHHR2TCYaRjezBmQiebsCh6Twb+PFEX8Za4n7E+SIfz670iaKsfT6Um+rmb9js+DqMuaqRUuERVjoG41rafk3IclesIX1hU1FWnMnjpccYq1CHYuZRtATxrVGf/MRfniPDX6Ot7g5x0tVssU/EE7/qgI77RFHWaYTjAEH9fKKtLteXLDd1eQfBtZ1/JJcuPqFDoa1ul8K62SckPYh84ctjqklUDekNwLDwiaNKlx8jZSfRCbEXiNz9eHy4Kq0bYp2EMWfHsMUNaJCBoafxpfNxQznm38X4hbGK5kZ1VGGtX9Jxv22Jw1WWqE+uwZXblFOewI4pIqUOXjvyUefnrJwcC/eNIGPG1CcfV9tAxlqFAPsb/BubTYhlCGJIMBerzcNbgyBezosnMlm/VJtrPzH1AuvvJ6Z6yTS+NoZHlE5v10ZVUWMmY2b4BOx9O1DmIQ1EW939LGrktpU+8Z+iRvtBhkZY8fQtzkR2Cv8s0QmJMPN1i9H2g4mfKjbrPWW335MdD1u2TPwFPckYC4V9Txvzps9cs3JTVwmS5vRUNPf3l2spvNqfxcYmVcGnYy2bpSUNwxyx6pMxK5YlgvRYaAkMfQXLfIaDpjDkr6oM5mDgDE7gGlxC0uXijOdVRP3Stkx51xJFWcfZmSRuDVcmz4735CQntfNTLtXUdlboxygykAidBvFET8qtE0o4GUT/zaSJ46zCAULCxEiqoJ+3LUxXW6KtTkc2mbelcC4SpvKKsqYiMbnZf5VahtMLGUEaJ05OEhjAtwAtbzmqu2UzAikPQZVLJjKGpFyfLAEJE7uLEGWvAvl+OpQMN9qWQH7JEhXNb8dsuqyNHmShTORL85FQi7I+BbmR+Z8yklVEKMqJNlqblA9C7GHJd/hs2n4JVIldo0jsSl4idHnTaCwQR1KdBRPpaPJF12mhVquY9Xi7owzFPjdZQo8MlDIy6X7cv4AN+Tglw99Uh+huPI71x3EUL5NbxlFBO5dlJGPK37kst9UFl2VdYEVkx1sQiopN17zcVAjHf8Hy3FmNyeTE3seoCM5v1HtEKzpgAxVEujoZ889Y+4CMshXkjzBaY1tUXmqJkkQpLU8IbXXfRZC9TBtB+5JGDIbzU5h/MFpiaRG10etZW+9qw2OExXhGhJgyDaBF7ltKx8+wg64FP5Md9Fijjm3Isj0fHV6F+9s4eDdTKJgU4vXJU0FVX4xQto4Q4kSLtCvKOoFBvwSl5q9PHmPd/szdg9jfz4NZA8I494PtmdqTtzCqUJXTty3BboWzvRW/gsk/yGspvJ92icJvLMzeYmOrHSwbjCUWJyLZEjpvkdk20FEJ98NE932Ktr7sxIfR4SIUezRGORaXdOiwhFF14vEoqK4ZT2PYjbJSCuIpRu1kyjPisQvBnqNzF4ZtUIrYhZd2+Ehu6l3bW9GMU3S5bkh/wtyHbMuIf7IE+jPykJLIhRDvIfI5jPqNYmAxsu/R3PXI/keQI8TiX9SRjVQq8ovgTr4xJoFEqvoetC0d6y2hF6h4oocKxV1o1o2E+QHaEaX1ySMQf0X2E3xHpe7fWLcVkf/GlBd1yKqDjFCfVC0eEKQ21Qq/sQRavMrsOGGxnYk9FCdbQGZw5qylIzmGrFWLjHKe70359W6oVUoJj1iiNrpJK+aj13a47UfJl9Gvh47UXQg5jD90Q5mg40B2rZEJXmduJXI1gS5VTL+APxfzx9MYapGufOsw8AKGP8yon6ijFmtX8EcVos0Vj1shZjF8El+ZOkYzfDLfMKZepvwykHW/wzcQOQb5HcakCeWLMGeTDHAtcqzCUb5Spp16R5sNa6i4EnFUN49UnkN0Qhw/2ONDQhLziqhoPl3O+pAcMwzvZbAKz9xtdaej2BjK/IvpiCmDTEfC8RwM99oWW66xhO5f9Unezrk0MWUcG+9XKFegA3QzxLny/AY0PJfssw7FzlPHGoaeT2ystC12uNMSevLOjp+jEdczdChTrodHtg7F67FDIDMt8YbeualT5D/VJh8Tsfsb2DEo8mPdzVYQI70ZugJTLVWcrMCIL4GmSKNtegf4mEDojmSnsER37dioJfQEZ0foAVhT1FoeInAEfK5kWlrPDIUgl3Pc2RJ7LC4/2wokpmrNRptXVvNHvAl0tiWU35nWhDP7al6TZIknBjfB8CmC0TQRyejT2Ej8nYVAUxoZOhxiRWM8kR9rq3u+EQdcQUdro16xShKfNuIzpdDMJnlGLVNetERL4Vu46LeNyP8RIbuyUS0W3EGZ/hHMduswPmAJ5uwD2kRYvB3LTf1Ebw6vw0SX3G34e6fe1TbEOFfRebltsewPLZFKn4l2g7Wrfofwy/P9My2sPKZr5Tjmj4dPrd/RUvgi09Yycp86PsAz/5t7pqp1W/LoAUFFTXb8nZgtinSD86ukA6hA/aSrYyeh0Kc668EpGRBKDkRBD6J+E2YNE2xeE2Zth8uIJt32+J2qichvZME4Hb4XVZKLek3HyrOWUPrITf1J1mtGhd74Y1+sre4inUSHGDEVMQ4h/XK/o61OO3EfAGelLpM6yf7By6R+g9BlkjJfI4Zggk3MH+KvIsKYaTH/MjlGy46DYV/4TGHpP6u2W0zHa1h/tW35oZVfL8yUfN3TCIcpOOxWPZDvgDNFKS/0J4ncFDtSDyaW0IFuX9NFKMQZMxCjBkQnQxEmVJ8MamcRCmrWeJP51/mEXaMoK8RRExCM9QfT8ssu1VQ88SR64zy9EKHZDpmaM0b2P4Hcj/Ft5bNXpOmE4QIMMZ1UkOroaGf4Vtx2iuriE6SBc1hmNLYj9Slj82sFcj9pWyLiHUvolwb7G2BbnYqmc+joTTTBI5UeQPC0E7kD4MMqIqjqkLI3HcihlzUJpgM4lfa0R94BLdyhVdT6Wmn7I6Le255CzIPYZYicJ3l1NWrng70I/ZBXGz3Gx27RL7otharn9eY9SAm1ifA42yqhFpl1bz4bma9h6qnS+1wiQSfvuT5TEfFEUqrC4zodTldBDGB4gqlH8jGEfgh7Ckf6khrz7w==(/figma)--&gt;&quot;&gt;&lt;/span&gt;&lt;span style=&quot;&quot;&gt;This response is issued only when the provided &lt;br&gt;userId exists but cannot access the idv feature. If a non existing user id is provided then a http 404 error is returned.&lt;/span&gt;" style="text;whiteSpace=wrap;html=1;" parent="1" vertex="1">
          <mxGeometry x="-600" y="240" width="560" height="70" as="geometry" />
        </mxCell>
      </root>
    </mxGraphModel>
  </diagram>
</mxfile>
